<svg xmlns="http://www.w3.org/2000/svg" width="429" height="440" fill="none" viewBox="0 0 429 440">
  <rect width="429" height="440" fill="#343332" rx="91"/>
  <path fill="#fff" d="M71.546 158v93.091H66V158h5.546Zm61.627 93.091v-69.818h5.5v69.818h-5.5Zm93.082 1.454c-5.758 0-10.879-1.545-15.364-4.636-4.485-3.121-8.015-7.409-10.591-12.864-2.576-5.454-3.864-11.666-3.864-18.636 0-7 1.288-13.212 3.864-18.636 2.576-5.455 6.106-9.743 10.591-12.864 4.485-3.121 9.606-4.682 15.364-4.682 5.757 0 10.878 1.561 15.363 4.682 4.485 3.121 8.015 7.409 10.591 12.864 2.576 5.454 3.864 11.666 3.864 18.636 0 6.97-1.288 13.182-3.864 18.636-2.576 5.455-6.106 9.743-10.591 12.864-4.485 3.091-9.606 4.636-15.363 4.636Zm0-5.136c4.878 0 9.136-1.379 12.772-4.136 3.667-2.758 6.5-6.485 8.5-11.182 2.031-4.697 3.046-9.924 3.046-15.682 0-5.757-1.015-10.97-3.046-15.636-2.03-4.697-4.863-8.425-8.5-11.182-3.636-2.788-7.894-4.182-12.772-4.182-4.879 0-9.137 1.394-12.773 4.182-3.637 2.757-6.47 6.485-8.5 11.182-2.03 4.666-3.046 9.879-3.046 15.636 0 5.758 1 10.985 3 15.682 2.031 4.697 4.864 8.424 8.5 11.182 3.667 2.757 7.94 4.136 12.819 4.136Zm92.865-41.591v45.273h-5.545v-69.818h5.409v11.045h.546c1.636-3.606 4.257-6.5 7.863-8.682 3.606-2.181 7.894-3.272 12.864-3.272 4.697 0 8.818 1 12.363 3 3.576 2 6.364 4.848 8.364 8.545 2.03 3.667 3.046 8.046 3.046 13.136v46.046h-5.546v-45.818c0-5.94-1.773-10.712-5.318-14.318-3.515-3.637-8.167-5.455-13.955-5.455-3.878 0-7.333.848-10.363 2.545-3.031 1.697-5.409 4.076-7.137 7.137-1.727 3.03-2.591 6.576-2.591 10.636Z"/>
  <path fill="#fff" d="m71.423 245 .615 54.363-5.423.06L66 245.062z"/>
  <path fill="#fff" d="M66 299h298v4H66v-4Z"/>
</svg>
