<svg xmlns="http://www.w3.org/2000/svg" viewBox="0 0 1785.66 819.68"><defs><style>.a,.i{font-size:36px;}.a,.ba,.m,.o,.t{font-family:INGMe, ING Me;}.b{letter-spacing:-0.01em;}.c{letter-spacing:0em;}.d{letter-spacing:-0.07em;}.e{font-size:19px;}.f{letter-spacing:-0.01em;}.g{letter-spacing:0em;}.h{letter-spacing:-0.02em;}.ab,.at,.av,.aw,.i,.z{font-family:INGMe-Bold, ING Me;font-weight:700;}.j{letter-spacing:-0.06em;}.k{fill:none;stroke:#000;stroke-miterlimit:10;stroke-width:3px;}.ab,.aw,.l,.x{opacity:0.4;}.m,.o,.t{font-size:26px;}.at,.aw,.m,.w,.x{fill:#0071bc;}.n{letter-spacing:-0.01em;}.o,.v{fill:#22b573;}.p{letter-spacing:-0.03em;}.q{letter-spacing:0em;}.r{letter-spacing:-0.03em;}.s{letter-spacing:-0.01em;}.t,.y{fill:#f7931e;}.u{letter-spacing:0em;}.ab,.at,.aw,.ba,.z{font-size:20px;}.aa{letter-spacing:0.02em;}.ac{letter-spacing:-0.02em;}.ad,.am{letter-spacing:-0.01em;}.ae{letter-spacing:0em;}.af{letter-spacing:-0.01em;}.ag{letter-spacing:-0.02em;}.ah,.an{letter-spacing:0em;}.ai{letter-spacing:-0.01em;}.aj{fill:#4d4d4d;}.ak,.ao{letter-spacing:-0.06em;}.ak,.al,.am,.an{fill:#000;}.ap{letter-spacing:-0.02em;}.aq{letter-spacing:-0.01em;}.ar{letter-spacing:-0.02em;}.as{letter-spacing:-0.05em;}.au{letter-spacing:0.02em;}.av{font-size:28px;fill:#fff;}.ax{letter-spacing:-0.01em;}.ay{letter-spacing:0em;}.az{letter-spacing:-0.01em;}.bb{letter-spacing:-0.03em;}.bc{letter-spacing:0em;}.bd{letter-spacing:-0.01em;}</style></defs><text class="a" transform="translate(427.63 691.15)"><tspan class="b">f</tspan><tspan x="11.23" y="0">ormat</tspan><tspan class="c" x="111.17" y="0">t</tspan><tspan x="124.16" y="0">ed</tspan><tspan class="d" x="164.45" y="0">V</tspan><tspan x="183.99" y="0">alue</tspan></text><text class="a" transform="translate(507.79 117.15)">User<tspan class="e"><tspan x="-51.2" y="22.8">(input</tspan><tspan class="f" x="-1.16" y="22.8">E</tspan><tspan class="g" x="8.8" y="22.8">lement.input)</tspan></tspan></text><text class="a" transform="translate(501.16 311.15)"><tspan class="h">v</tspan><tspan x="16.92" y="0">alue</tspan></text><text class="i" transform="translate(446.1 498.15)">model<tspan class="j" x="103.86" y="0">V</tspan><tspan x="124.49" y="0">alue</tspan></text><text class="a" transform="translate(18.03 498.15)">seriali<tspan class="b" x="93.63" y="0">z</tspan><tspan x="109.37" y="0">ed</tspan><tspan class="d" x="149.65" y="0">V</tspan><tspan x="169.2" y="0">alue</tspan></text><line class="k" x1="544.49" y1="242.37" x2="544.49" y2="168.78"/><polygon points="555.6 233.94 544.49 238.66 533.38 233.94 544.49 260.28 555.6 233.94"/><line class="k" x1="574.49" y1="260.28" x2="574.49" y2="186.69"/><polygon points="585.6 195.11 574.49 190.39 563.38 195.11 574.49 168.78 585.6 195.11"/><line class="k" x1="544.49" y1="421.37" x2="544.49" y2="347.78"/><polygon points="555.6 412.94 544.49 417.66 533.38 412.94 544.49 439.28 555.6 412.94"/><line class="k" x1="542.49" y1="614.37" x2="542.49" y2="540.78"/><polygon points="553.6 605.94 542.49 610.66 531.38 605.94 542.49 632.28 553.6 605.94"/><path class="k" d="M459,528.28S314.29,677.72,161,540.59" transform="translate(-1.01)"/><polygon points="173.8 538.19 162.76 543.07 158.6 554.4 146.99 528.28 173.8 538.19"/><path class="k" d="M635.09,307.52c71.85,31,340.21,166.77,60.41,365.26" transform="translate(-1.01)"/><polygon points="637.6 321.09 637.47 309.02 646.07 300.55 617.49 300.78 637.6 321.09"/><g class="l"><path class="k" d="M148,439.5s144.71-149.44,298-12.32" transform="translate(-1.01)"/><polygon points="431.18 429.58 442.23 424.71 446.39 413.38 457.99 439.5 431.18 429.58"/></g><text class="m" transform="translate(554.77 393.17)">parser</text><text class="m" transform="translate(243.77 632.17)">seriali<tspan class="n" x="67.62" y="0">z</tspan><tspan x="78.99" y="0">er</tspan></text><g class="l"><text class="m" transform="translate(243.77 356.17)">deseriali<tspan class="n" x="96.72" y="0">z</tspan><tspan x="108.08" y="0">er</tspan></text></g><text class="o" transform="translate(473.77 200.17)">sync</text><text class="o" transform="translate(394.77 257.17)">p<tspan class="p" x="14.56" y="0">r</tspan><tspan class="q" x="23.01" y="0">ep</tspan><tspan class="r" x="51.71" y="0">r</tspan><tspan x="60.16" y="0">o</tspan><tspan class="s" x="74.91" y="0">c</tspan><tspan x="87.25" y="0">ess</tspan></text><text class="t" transform="translate(805.77 647.17)">on-blur</text><text class="o" transform="translate(591.77 206.17)">delega<tspan class="u" x="78.7" y="0">t</tspan><tspan x="88.09" y="0">e</tspan></text><text class="o" transform="translate(772.77 382.17)">sync</text><text class="m" transform="translate(554.77 573.17)"><tspan class="n">f</tspan><tspan x="8.11" y="0">ormat</tspan><tspan class="u" x="80.29" y="0">t</tspan><tspan class="q" x="89.67" y="0">er</tspan></text><circle class="v" cx="447.99" cy="195.28" r="16.97"/><circle class="v" cx="716.99" cy="206.28" r="16.97"/><circle class="w" cx="576.49" cy="345.78" r="16.97"/><circle class="x" cx="218.49" cy="323.78" r="16.97"/><circle class="w" cx="218.49" cy="636.78" r="16.97"/><circle class="w" cx="576.49" cy="598.78" r="16.97"/><circle class="y" cx="780.99" cy="641.28" r="16.97"/><text class="z" transform="translate(775.07 648.53)">5</text><text class="t" transform="translate(429.77 80.17)">in<tspan class="u" x="21.09" y="0">t</tspan><tspan x="30.47" y="0">e</tspan><tspan class="r" x="44.62" y="0">r</tspan><tspan x="53.07" y="0">a</tspan><tspan class="aa" x="67.75" y="0">c</tspan><tspan x="80.78" y="0">t</tspan></text><circle class="y" cx="404.99" cy="74.28" r="16.97"/><text class="z" transform="translate(399.07 80.53)">1</text><text class="z" transform="translate(442.07 202.53)">2</text><text class="z" transform="translate(570.07 353.53)">3</text><text class="z" transform="translate(570.07 605.53)">4</text><text class="z" transform="translate(212.07 643.53)">4</text><text class="ab" transform="translate(213.07 330.53)">5</text><text class="z" transform="translate(711.07 213.53)">7</text><circle class="v" cx="755.99" cy="345.28" r="16.97"/><text class="z" transform="translate(750.07 352.53)">6</text><text class="z" transform="translate(964.02 117.02)"><tspan xml:space="preserve">1. User changes the input          </tspan><tspan x="0" y="96">2. Nati</tspan><tspan class="ac" x="60.28" y="96">v</tspan><tspan x="70.24" y="96">e input syncs with </tspan><tspan x="0" y="120" xml:space="preserve">    lion-input-da</tspan><tspan class="ad" x="140.2" y="120">t</tspan><tspan class="ae" x="148.22" y="120">e </tspan><tspan class="af" x="164.1" y="120">v</tspan><tspan x="174.06" y="120">alue and </tspan><tspan x="0" y="144" xml:space="preserve">    gets p</tspan><tspan class="ag" x="75.64" y="144">r</tspan><tspan x="82.76" y="144">ep</tspan><tspan class="ag" x="105.32" y="144">r</tspan><tspan class="ah" x="112.44" y="144">o</tspan><tspan class="ai" x="123.84" y="144">c</tspan><tspan class="ae" x="133.64" y="144">essed</tspan><tspan class="aj"><tspan x="0" y="192">3. </tspan><tspan class="ak" x="21.26" y="192">V</tspan><tspan class="al" x="32.72" y="192">alue is parsed </tspan><tspan class="am" x="164.5" y="192">t</tspan><tspan class="al" x="172.52" y="192">o model</tspan><tspan class="ak" x="246.42" y="192">V</tspan><tspan class="an" x="257.88" y="192">alue</tspan></tspan><tspan x="0" y="288">4. model</tspan><tspan class="ao" x="78.96" y="288">V</tspan><tspan x="90.42" y="288">alue is </tspan><tspan class="ap" x="154.56" y="288">f</tspan><tspan class="ah" x="161.7" y="288">ormat</tspan><tspan class="ad" x="218.38" y="288">t</tspan><tspan x="226.4" y="288">ed </tspan><tspan class="aq" x="254" y="288">t</tspan><tspan class="ah" x="262.02" y="288">o </tspan><tspan x="0" y="312" xml:space="preserve">    </tspan><tspan class="ar" x="19.2" y="312">f</tspan><tspan x="26.34" y="312">ormat</tspan><tspan class="aq" x="83.02" y="312">t</tspan><tspan x="91.04" y="312">ed</tspan><tspan class="ao" x="113.84" y="312">V</tspan><tspan class="ah" x="125.3" y="312">alue and </tspan><tspan x="0" y="336" xml:space="preserve">    model</tspan><tspan class="ao" x="76.9" y="336">V</tspan><tspan x="88.36" y="336">alue is seriali</tspan><tspan class="aq" x="208.26" y="336">z</tspan><tspan x="217.04" y="336">ed </tspan><tspan class="ad" x="244.63" y="336">t</tspan><tspan x="252.66" y="336">o</tspan><tspan x="0" y="360" xml:space="preserve">    seriali</tspan><tspan class="aq" x="74.96" y="360">z</tspan><tspan x="83.74" y="360">ed</tspan><tspan class="ao" x="106.54" y="360">V</tspan><tspan class="ah" x="118" y="360">alue</tspan><tspan x="0" y="384" xml:space="preserve">    </tspan><tspan x="0" y="432">5. User blurs the field.</tspan><tspan x="0" y="456" xml:space="preserve">    Input gets </tspan><tspan class="ac" x="117.68" y="456">v</tspan><tspan x="127.64" y="456">alida</tspan><tspan class="aq" x="173.32" y="456">t</tspan><tspan x="181.34" y="456">ed by</tspan><tspan x="0" y="480" xml:space="preserve">    </tspan><tspan class="ao" x="19.2" y="480">V</tspan><tspan x="30.66" y="480">alida</tspan><tspan class="aq" x="76.34" y="480">t</tspan><tspan x="84.36" y="480">eMixin</tspan><tspan x="0" y="528">6. </tspan><tspan class="ap" x="21.26" y="528">f</tspan><tspan class="ah" x="28.4" y="528">ormat</tspan><tspan class="aq" x="85.08" y="528">t</tspan><tspan x="93.1" y="528">ed</tspan><tspan class="ao" x="115.9" y="528">V</tspan><tspan x="127.36" y="528">alue syn</tspan><tspan class="ai" x="204.72" y="528">c</tspan><tspan x="214.52" y="528">ed</tspan><tspan x="0" y="552" xml:space="preserve">    back </tspan><tspan class="aq" x="67.2" y="552">t</tspan><tspan class="ah" x="75.22" y="552">o the </tspan><tspan class="af" x="127.16" y="552">v</tspan><tspan x="137.12" y="552">alue</tspan><tspan x="0" y="576" xml:space="preserve">    (p</tspan><tspan class="ag" x="37.44" y="576">r</tspan><tspan class="af" x="44.56" y="576">ev</tspan><tspan class="ae" x="65.3" y="576">ent</tspan><tspan class="ar" x="96.26" y="576">R</tspan><tspan class="ae" x="107.86" y="576">ecursi</tspan><tspan class="af" x="162.8" y="576">v</tspan><tspan class="ae" x="172.76" y="576">e</tspan><tspan class="as" x="183.84" y="576">T</tspan><tspan x="193.54" y="576">rigger</tspan><tspan x="0" y="600" xml:space="preserve">     p</tspan><tspan class="ag" x="35.48" y="600">r</tspan><tspan class="af" x="42.6" y="600">ev</tspan><tspan x="63.34" y="600">ents infini</tspan><tspan class="aq" x="155.02" y="600">t</tspan><tspan x="163.04" y="600">e looping)</tspan><tspan x="0" y="648">7. </tspan><tspan class="ao" x="21.26" y="648">V</tspan><tspan x="32.72" y="648">alue is delega</tspan><tspan class="aq" x="159.36" y="648">t</tspan><tspan x="167.38" y="648">ed back </tspan><tspan class="aq" x="242.98" y="648">t</tspan><tspan class="ah" x="251" y="648">o </tspan><tspan x="0" y="672" xml:space="preserve">    nati</tspan><tspan class="ac" x="55.92" y="672">v</tspan><tspan x="65.88" y="672">e input </tspan><tspan class="af" x="134.86" y="672">v</tspan><tspan x="144.82" y="672">alue </tspan><tspan x="0" y="696" xml:space="preserve">    (what the user sees)</tspan></text><text class="at" transform="translate(1333.02 117.02)"><tspan xml:space="preserve"> “10/30/2010”</tspan><tspan x="0" y="96">“10/30/2010”</tspan><tspan x="0" y="192">[Da</tspan><tspan class="aq" x="31.54" y="192">t</tspan><tspan x="39.56" y="192">eO</tspan><tspan class="ai" x="64.62" y="192">b</tspan><tspan x="75.88" y="192">je</tspan><tspan class="au" x="92.44" y="192">c</tspan><tspan x="102.72" y="192">t] </tspan><tspan x="0" y="288">“30-10-2010”</tspan><tspan x="0" y="336">“2010-10-30T00:00:00.000Z”</tspan><tspan x="0" y="432">“30-10-2010”</tspan><tspan x="0" y="528">“30-10-2010”</tspan><tspan x="0" y="648">“30-10-2010”</tspan></text><text class="z" transform="translate(1530.02 117.02)"> <tspan class="aj" x="4.8" y="0" xml:space="preserve">@user-input-changed    </tspan><tspan x="0" y="96"> </tspan><tspan class="aj"><tspan x="0" y="192">@model-</tspan><tspan class="ac" x="81.98" y="192">v</tspan><tspan class="ah" x="91.94" y="192" xml:space="preserve">alue-changed  </tspan><tspan x="0" y="288">@</tspan><tspan class="ap" x="16.54" y="288">f</tspan><tspan class="ah" x="23.68" y="288">ormat</tspan><tspan class="aq" x="80.36" y="288">t</tspan><tspan x="88.38" y="288">ed-</tspan><tspan class="af" x="118.92" y="288">v</tspan><tspan x="128.88" y="288">alue-changed</tspan><tspan x="0" y="360">@seriali</tspan><tspan class="aq" x="72.3" y="360">z</tspan><tspan x="81.08" y="360">ed-</tspan><tspan class="af" x="111.62" y="360">v</tspan><tspan x="121.58" y="360">alue-changed</tspan><tspan x="0" y="384" xml:space="preserve">    </tspan></tspan></text><text class="av" transform="translate(1239.49 594.78)">!</text><text class="aw" transform="translate(54.99 259.83)"><tspan xml:space="preserve">     [Da</tspan><tspan class="ax" x="55.54" y="0">t</tspan><tspan x="63.56" y="0">eO</tspan><tspan class="ai" x="88.62" y="0">b</tspan><tspan class="ay" x="99.88" y="0">je</tspan><tspan class="au" x="116.44" y="0">c</tspan><tspan x="126.72" y="0">t]</tspan></text><g class="l"><path d="M4.93,196.92a9.66,9.66,0,0,1,1,0,4.14,4.14,0,0,1,3.16,1.2,4.22,4.22,0,0,1,.83,1.34,4.71,4.71,0,0,1,.31,1.78,5,5,0,0,1-.4,2.08,4.33,4.33,0,0,1-1.11,1.51,4.78,4.78,0,0,1-1.69.93,7,7,0,0,1-2.14.32,8.05,8.05,0,0,1-2.05-.26,6,6,0,0,1-1.63-.66.35.35,0,0,1-.12-.48l.54-1.14a.29.29,0,0,1,.44-.16,6.9,6.9,0,0,0,1.36.5A6.42,6.42,0,0,0,5,204a3.16,3.16,0,0,0,1.21-.21,2.34,2.34,0,0,0,1.36-1.44,3.3,3.3,0,0,0,.17-1.05,2.44,2.44,0,0,0-.71-2,3,3,0,0,0-2-.6,9,9,0,0,0-1.38.11,14.66,14.66,0,0,0-1.52.33q-.36.1-.36-.24v-7.22a.27.27,0,0,1,.3-.3H9.34a.27.27,0,0,1,.3.3v1.48a.27.27,0,0,1-.3.3H4v3.58A5.38,5.38,0,0,1,4.93,196.92Z" transform="translate(-1.01)"/><path d="M13,205.83c-.27,0-.4-.13-.4-.38v-2.08c0-.25.13-.38.4-.38h2.1c.28,0,.42.13.42.38v2.08c0,.25-.14.38-.42.38Z" transform="translate(-1.01)"/><path d="M34.44,198.43a10.9,10.9,0,0,1-.42,3.14A6.85,6.85,0,0,1,32.79,204a5.44,5.44,0,0,1-2,1.53A6.6,6.6,0,0,1,28,206a6.72,6.72,0,0,1-2.42-.42,4.85,4.85,0,0,1-1.89-1.31,6.07,6.07,0,0,1-1.23-2.25,10.62,10.62,0,0,1-.44-3.22,10.9,10.9,0,0,1,.42-3.14,6.85,6.85,0,0,1,1.23-2.39,5.44,5.44,0,0,1,2-1.53,6.6,6.6,0,0,1,2.74-.54,6.72,6.72,0,0,1,2.42.42A4.85,4.85,0,0,1,32.77,193,6.07,6.07,0,0,1,34,195.21,10.62,10.62,0,0,1,34.44,198.43Zm-2.62.08a6.72,6.72,0,0,0-.9-3.9,2.93,2.93,0,0,0-2.52-1.24,3.16,3.16,0,0,0-2.76,1.38,7,7,0,0,0-1,4,6.72,6.72,0,0,0,.9,3.9,2.93,2.93,0,0,0,2.52,1.24,3.16,3.16,0,0,0,2.76-1.38A7,7,0,0,0,31.82,198.51Z" transform="translate(-1.01)"/><path d="M38.8,195.57a1.54,1.54,0,0,1,.05.35l0,.43a3.85,3.85,0,0,1,1.3-.92,4.17,4.17,0,0,1,1.74-.36,4.23,4.23,0,0,1,1.6.28,3.17,3.17,0,0,1,1.18.8,3.22,3.22,0,0,1,.74,1.33,7.08,7.08,0,0,1,.22,2v6.08c0,.21-.11.32-.34.32H43.6c-.23,0-.34-.11-.34-.32v-5.3c0-.36,0-.67,0-.93a5.54,5.54,0,0,0-.07-.67,1.83,1.83,0,0,0-.14-.48,1.69,1.69,0,0,0-.23-.36,1.92,1.92,0,0,0-1.54-.52,3.37,3.37,0,0,0-.87.12,2.16,2.16,0,0,0-.75.34,1.15,1.15,0,0,0-.4.46,2.27,2.27,0,0,0-.16.72,8.7,8.7,0,0,0,0,1v5.65c0,.21-.11.32-.34.32H37c-.23,0-.34-.11-.34-.32v-6.26c0-.41,0-.82,0-1.23s0-.78,0-1.11,0-.62,0-.85,0-.39,0-.47.11-.32.34-.32H38.4A.36.36,0,0,1,38.8,195.57Z" transform="translate(-1.01)"/><path d="M53.48,205.83c-.23,0-.34-.11-.34-.32v-6.26c0-.41,0-.82,0-1.23s0-.78,0-1.11,0-.62,0-.85,0-.39,0-.47.11-.32.34-.32h1.54a.38.38,0,0,1,.27.07.49.49,0,0,1,.11.23c0,.25.07.57.1,1s.05.72.06,1a5.78,5.78,0,0,1,1.25-1.76,2.42,2.42,0,0,1,1.69-.68.84.84,0,0,1,.45.09.37.37,0,0,1,.13.33v1.36c0,.24-.11.37-.34.38a3.3,3.3,0,0,0-1.42.49,3.11,3.11,0,0,0-1,1,4.21,4.21,0,0,0-.31.64,3.92,3.92,0,0,0-.2.77,8.61,8.61,0,0,0-.1,1q0,.59,0,1.38v2.94c0,.21-.11.32-.34.32Z" transform="translate(-1.01)"/><path d="M64.72,206a5.69,5.69,0,0,1-2.25-.4,4.3,4.3,0,0,1-1.57-1.11,4.78,4.78,0,0,1-.93-1.69,6.88,6.88,0,0,1-.31-2.12,7.06,7.06,0,0,1,.36-2.32,5.33,5.33,0,0,1,1-1.78,4.49,4.49,0,0,1,1.55-1.14,4.83,4.83,0,0,1,2-.4,4.46,4.46,0,0,1,2,.4A4,4,0,0,1,68,196.59a4.92,4.92,0,0,1,.86,1.71,7.76,7.76,0,0,1,.29,2.15,1.92,1.92,0,0,1-.1.78.34.34,0,0,1-.32.2H62.16a2.57,2.57,0,0,0,2.9,2.52,5.83,5.83,0,0,0,1.32-.17,6.83,6.83,0,0,0,1.32-.45.35.35,0,0,1,.52.2l.4,1a.68.68,0,0,1,0,.35c0,.09-.1.16-.23.23a7.19,7.19,0,0,1-1.69.68A7.78,7.78,0,0,1,64.72,206Zm-.14-8.9a2,2,0,0,0-1.64.7,3.52,3.52,0,0,0-.76,1.8h4.5a3.7,3.7,0,0,0-.16-.95,2.38,2.38,0,0,0-.41-.79,2.14,2.14,0,0,0-.65-.55A1.79,1.79,0,0,0,64.58,197.13Z" transform="translate(-1.01)"/><path d="M77.58,205a3,3,0,0,1-1.22.8,4.39,4.39,0,0,1-1.48.26,4,4,0,0,1-1.77-.38,3.53,3.53,0,0,1-1.29-1.08,5.18,5.18,0,0,1-.8-1.67,7.62,7.62,0,0,1-.28-2.15,6.66,6.66,0,0,1,.39-2.33,5.26,5.26,0,0,1,1.09-1.8,4.7,4.7,0,0,1,1.7-1.15,5.78,5.78,0,0,1,2.2-.4,8.27,8.27,0,0,1,1.9.22,6.14,6.14,0,0,1,1.58.56.63.63,0,0,1,.3.28,1.12,1.12,0,0,1,.08.46v8c0,.53,0,1.07,0,1.62s0,1.07.07,1.57.07,1,.1,1.38.07.78.11,1.07-.09.42-.4.42H78.4a.59.59,0,0,1-.37-.09.53.53,0,0,1-.15-.29,5.79,5.79,0,0,1-.11-.77c0-.34-.07-.74-.1-1.2s-.06-1-.07-1.54S77.58,205.61,77.58,205Zm-2.1-1a2.67,2.67,0,0,0,.86-.14,1.77,1.77,0,0,0,.68-.42,1.75,1.75,0,0,0,.43-.81,5.36,5.36,0,0,0,.13-1.33v-3.92a4.21,4.21,0,0,0-.72-.18,4.81,4.81,0,0,0-.74-.06,2.62,2.62,0,0,0-2,.78,3,3,0,0,0-.66,1.14,5.23,5.23,0,0,0-.24,1.68,4.74,4.74,0,0,0,.51,2.39A1.86,1.86,0,0,0,75.48,204Z" transform="translate(-1.01)"/><path d="M88.06,205.67a4.26,4.26,0,0,1-1.76.36,4.16,4.16,0,0,1-1.58-.28,2.94,2.94,0,0,1-1.16-.8,3.3,3.3,0,0,1-.72-1.33,7.08,7.08,0,0,1-.22-2v-6.08c0-.21.11-.32.34-.32h1.72a.3.3,0,0,1,.34.32v5.3c0,.36,0,.67,0,.93a5.74,5.74,0,0,0,.06.67,1.52,1.52,0,0,0,.13.48,2.12,2.12,0,0,0,.21.36,1.93,1.93,0,0,0,1.52.52,3.37,3.37,0,0,0,.87-.12,2.16,2.16,0,0,0,.75-.34,1,1,0,0,0,.4-.45,2.41,2.41,0,0,0,.16-.73,8.7,8.7,0,0,0,0-1v-5.65c0-.21.12-.32.36-.32h1.7a.3.3,0,0,1,.34.32v6.26c0,.43,0,.84,0,1.24s0,.77,0,1.1,0,.62,0,.85,0,.39,0,.47-.12.32-.36.32H89.8a.37.37,0,0,1-.27-.07.45.45,0,0,1-.11-.25l-.08-.76A3.67,3.67,0,0,1,88.06,205.67Z" transform="translate(-1.01)"/><path d="M98.86,206a5.69,5.69,0,0,1-2.25-.4A4.3,4.3,0,0,1,95,204.52a4.49,4.49,0,0,1-.93-1.69,6.88,6.88,0,0,1-.31-2.12,7.06,7.06,0,0,1,.36-2.32,5.17,5.17,0,0,1,1-1.78,4.49,4.49,0,0,1,1.55-1.14,4.8,4.8,0,0,1,2-.4,4.46,4.46,0,0,1,2,.4,4,4,0,0,1,1.41,1.12,5.09,5.09,0,0,1,.86,1.71,7.76,7.76,0,0,1,.29,2.15,1.92,1.92,0,0,1-.1.78.34.34,0,0,1-.32.2H96.3A2.57,2.57,0,0,0,99.2,204a5.83,5.83,0,0,0,1.32-.17,7.07,7.07,0,0,0,1.32-.45.35.35,0,0,1,.52.2l.4,1a.68.68,0,0,1,0,.35c0,.09-.1.16-.23.23a7.37,7.37,0,0,1-1.69.68A7.84,7.84,0,0,1,98.86,206Zm-.14-8.9a2,2,0,0,0-1.64.7,3.52,3.52,0,0,0-.76,1.8h4.5a3.7,3.7,0,0,0-.16-.95,2.58,2.58,0,0,0-.41-.79,2.14,2.14,0,0,0-.65-.55A1.79,1.79,0,0,0,98.72,197.13Z" transform="translate(-1.01)"/><path d="M105.44,203.43c.13-.27.32-.33.56-.18a5.85,5.85,0,0,0,1.21.57,4.25,4.25,0,0,0,1.41.23,2.27,2.27,0,0,0,1.3-.35,1.05,1.05,0,0,0,.5-.89.9.9,0,0,0-.5-.82,7.52,7.52,0,0,0-1.64-.58,11.6,11.6,0,0,1-1.18-.38,3.82,3.82,0,0,1-1-.58,2.68,2.68,0,0,1-.72-.88,2.81,2.81,0,0,1-.27-1.3,3,3,0,0,1,.3-1.36,2.8,2.8,0,0,1,.83-1,3.71,3.71,0,0,1,1.26-.62,5.67,5.67,0,0,1,1.59-.21,5.86,5.86,0,0,1,1.79.26,5,5,0,0,1,1.37.68.41.41,0,0,1,.1.6l-.56.88c-.1.15-.19.22-.27.23a.51.51,0,0,1-.31-.09,5.12,5.12,0,0,0-1.09-.46,4.06,4.06,0,0,0-1-.14,2.76,2.76,0,0,0-1.18.24.87.87,0,0,0-.52.86.71.71,0,0,0,.17.5,1.43,1.43,0,0,0,.46.35,4.39,4.39,0,0,0,.65.27l.74.22c.37.11.75.23,1.15.38a4.72,4.72,0,0,1,1.07.56,2.72,2.72,0,0,1,.78.87,2.62,2.62,0,0,1,.3,1.31,3.4,3.4,0,0,1-.31,1.46,3.12,3.12,0,0,1-.85,1.08,3.85,3.85,0,0,1-1.27.67,5.28,5.28,0,0,1-1.55.23,6.92,6.92,0,0,1-2.19-.32A4.69,4.69,0,0,1,105,205a.44.44,0,0,1-.1-.6Z" transform="translate(-1.01)"/><path d="M117.76,195.27h2.46c.21,0,.32.11.32.34v1.22c0,.23-.11.34-.32.34h-2.46v5.14a3.89,3.89,0,0,0,.07.83,1.05,1.05,0,0,0,.25.53,1.19,1.19,0,0,0,1,.34,3.36,3.36,0,0,0,.65-.07l.63-.15a.34.34,0,0,1,.48.24l.28,1a.49.49,0,0,1,0,.34.59.59,0,0,1-.26.22,4.26,4.26,0,0,1-1,.32,6.1,6.1,0,0,1-1.27.14,3.31,3.31,0,0,1-2.32-.72,3.76,3.76,0,0,1-.9-2.84v-5.3H114c-.22,0-.32-.11-.32-.34v-1.22c0-.23.1-.34.32-.34h1.36v-2.78c0-.21.11-.32.34-.32h1.72a.3.3,0,0,1,.34.32Z" transform="translate(-1.01)"/><path d="M123,198.53c-.27,0-.4-.13-.4-.38v-2.08c0-.25.13-.38.4-.38h2.1c.28,0,.42.13.42.38v2.08c0,.25-.14.38-.42.38Zm0,7.3c-.27,0-.4-.13-.4-.38v-2.08c0-.25.13-.38.4-.38h2.1c.28,0,.42.13.42.38v2.08c0,.25-.14.38-.42.38Z" transform="translate(-1.01)"/><path d="M132.62,203.43c.13-.27.32-.33.56-.18a5.85,5.85,0,0,0,1.21.57,4.25,4.25,0,0,0,1.41.23,2.27,2.27,0,0,0,1.3-.35,1.05,1.05,0,0,0,.5-.89.9.9,0,0,0-.5-.82,7.52,7.52,0,0,0-1.64-.58,11.6,11.6,0,0,1-1.18-.38,3.82,3.82,0,0,1-1-.58,2.68,2.68,0,0,1-.72-.88,2.81,2.81,0,0,1-.27-1.3,3,3,0,0,1,.3-1.36,2.8,2.8,0,0,1,.83-1,3.71,3.71,0,0,1,1.26-.62,5.67,5.67,0,0,1,1.59-.21,5.86,5.86,0,0,1,1.79.26,5,5,0,0,1,1.37.68.41.41,0,0,1,.1.6l-.56.88c-.1.15-.19.22-.27.23a.51.51,0,0,1-.31-.09,5.12,5.12,0,0,0-1.09-.46,4.06,4.06,0,0,0-1-.14,2.76,2.76,0,0,0-1.18.24.87.87,0,0,0-.52.86.71.71,0,0,0,.17.5,1.43,1.43,0,0,0,.46.35,4.39,4.39,0,0,0,.65.27l.74.22c.37.11.75.23,1.15.38a4.72,4.72,0,0,1,1.07.56,2.72,2.72,0,0,1,.78.87,2.62,2.62,0,0,1,.3,1.31,3.4,3.4,0,0,1-.31,1.46,3.12,3.12,0,0,1-.85,1.08,3.85,3.85,0,0,1-1.27.67,5.28,5.28,0,0,1-1.55.23,6.92,6.92,0,0,1-2.19-.32,4.69,4.69,0,0,1-1.49-.76.44.44,0,0,1-.1-.6Z" transform="translate(-1.01)"/><path d="M146.52,206a5.69,5.69,0,0,1-2.25-.4,4.21,4.21,0,0,1-1.57-1.11,4.49,4.49,0,0,1-.93-1.69,6.88,6.88,0,0,1-.31-2.12,7.06,7.06,0,0,1,.36-2.32,5.17,5.17,0,0,1,1-1.78,4.49,4.49,0,0,1,1.55-1.14,4.8,4.8,0,0,1,2-.4,4.49,4.49,0,0,1,2,.4,4,4,0,0,1,1.41,1.12,5.09,5.09,0,0,1,.86,1.71,7.76,7.76,0,0,1,.29,2.15,2.12,2.12,0,0,1-.1.78.35.35,0,0,1-.32.2H144a2.89,2.89,0,0,0,.86,1.89,2.93,2.93,0,0,0,2,.63,5.83,5.83,0,0,0,1.32-.17,7.33,7.33,0,0,0,1.32-.45.35.35,0,0,1,.52.2l.4,1a.68.68,0,0,1,.05.35c0,.09-.1.16-.23.23a7.37,7.37,0,0,1-1.69.68A7.84,7.84,0,0,1,146.52,206Zm-.14-8.9a2,2,0,0,0-1.64.7,3.43,3.43,0,0,0-.76,1.8h4.5a4.19,4.19,0,0,0-.16-.95,2.58,2.58,0,0,0-.41-.79,2.14,2.14,0,0,0-.65-.55A1.82,1.82,0,0,0,146.38,197.13Z" transform="translate(-1.01)"/><path d="M153.48,205.83c-.23,0-.34-.11-.34-.32v-6.26c0-.41,0-.82,0-1.23s0-.78,0-1.11,0-.62,0-.85,0-.39,0-.47.11-.32.34-.32h1.54a.38.38,0,0,1,.27.07.61.61,0,0,1,.11.23c0,.25.07.57.1,1s0,.72.06,1a5.62,5.62,0,0,1,1.25-1.76,2.41,2.41,0,0,1,1.69-.68.84.84,0,0,1,.45.09.39.39,0,0,1,.13.33v1.36a.33.33,0,0,1-.34.38,3.3,3.3,0,0,0-1.42.49,3.11,3.11,0,0,0-1,1,3.44,3.44,0,0,0-.31.64,3.33,3.33,0,0,0-.2.77,8.61,8.61,0,0,0-.1,1q0,.59,0,1.38v2.94a.3.3,0,0,1-.34.32Z" transform="translate(-1.01)"/><path d="M161,193.29c-.24,0-.36-.11-.36-.34v-2c0-.23.12-.34.36-.34h2c.25,0,.38.11.38.34v2c0,.23-.13.34-.38.34Zm.16,12.54c-.23,0-.34-.11-.34-.32v-9.92c0-.21.11-.32.34-.32h1.72a.3.3,0,0,1,.34.32v9.92a.3.3,0,0,1-.34.32Z" transform="translate(-1.01)"/><path d="M172.92,205.53a2.53,2.53,0,0,1-.17-.46,3.42,3.42,0,0,1-.13-.56,3.43,3.43,0,0,1-1.25,1.11,3.56,3.56,0,0,1-1.67.41,4.12,4.12,0,0,1-1.84-.39,3.65,3.65,0,0,1-1.34-1.09,4.83,4.83,0,0,1-.82-1.67,7.57,7.57,0,0,1-.28-2.13,7.47,7.47,0,0,1,.36-2.4,5.47,5.47,0,0,1,1-1.79,3.93,3.93,0,0,1,1.43-1.11,4.09,4.09,0,0,1,1.74-.38,3.44,3.44,0,0,1,1.56.36,3,3,0,0,1,1.1.88l.06-.68a.36.36,0,0,1,.12-.29.52.52,0,0,1,.32-.07h1.32c.25,0,.38.11.38.32s0,.34,0,.61,0,.58,0,.93,0,.72,0,1.11,0,.78,0,1.15v1.9c0,.59,0,1.13,0,1.62s.06.92.1,1.29.06.66.1.89,0,.37,0,.42a.3.3,0,0,1-.34.32h-1.34A.43.43,0,0,1,172.92,205.53Zm-.58-7.28a2.86,2.86,0,0,0-.9-.81,2.31,2.31,0,0,0-1.12-.29,2.05,2.05,0,0,0-1.78.9,4.44,4.44,0,0,0-.64,2.6,6.73,6.73,0,0,0,.12,1.29,3.24,3.24,0,0,0,.39,1.06,1.93,1.93,0,0,0,.71.71,2.06,2.06,0,0,0,1.06.26,1.85,1.85,0,0,0,.81-.18,2.22,2.22,0,0,0,.63-.46,2.4,2.4,0,0,0,.56-1.09,6.12,6.12,0,0,0,.16-1.33Z" transform="translate(-1.01)"/><path d="M179.92,205.91a2.83,2.83,0,0,1-.95-.15,1.86,1.86,0,0,1-.77-.51,3.53,3.53,0,0,1-.62-2.4v-7c0-1,0-1.75,0-2.37s0-1.12-.05-1.5,0-.66,0-.83a2.88,2.88,0,0,1,0-.36q0-.3.36-.3h1.6a.38.38,0,0,1,.42.32c0,.13.05.38.07.74s0,.8.05,1.31,0,1.09,0,1.74,0,1.32,0,2v6.54a1.08,1.08,0,0,0,.14.64.55.55,0,0,0,.48.2h.2c.12,0,.19,0,.22.07a.76.76,0,0,1,0,.27v.94a.43.43,0,0,1-.22.42,2.49,2.49,0,0,1-.39.14A2.15,2.15,0,0,1,179.92,205.91Z" transform="translate(-1.01)"/><path d="M183.36,193.29c-.24,0-.36-.11-.36-.34v-2c0-.23.12-.34.36-.34h2c.25,0,.38.11.38.34v2c0,.23-.13.34-.38.34Zm.16,12.54c-.23,0-.34-.11-.34-.32v-9.92c0-.21.11-.32.34-.32h1.72a.3.3,0,0,1,.34.32v9.92a.3.3,0,0,1-.34.32Z" transform="translate(-1.01)"/><path d="M192.36,197.17H188c-.22,0-.32-.12-.32-.36v-1.2c0-.23.1-.34.32-.34h7a.3.3,0,0,1,.34.34v.56a1.64,1.64,0,0,1-.3.94l-4.54,6.82h4.62c.22,0,.34.12.34.36v1.2a.3.3,0,0,1-.34.34h-7.32c-.22,0-.32-.11-.32-.34v-.56a1.64,1.64,0,0,1,.3-.94Z" transform="translate(-1.01)"/><path d="M201.66,206a5.69,5.69,0,0,1-2.25-.4,4.21,4.21,0,0,1-1.57-1.11,4.49,4.49,0,0,1-.93-1.69,6.88,6.88,0,0,1-.31-2.12,7.06,7.06,0,0,1,.36-2.32,5.17,5.17,0,0,1,1-1.78,4.49,4.49,0,0,1,1.55-1.14,4.8,4.8,0,0,1,2-.4,4.49,4.49,0,0,1,2,.4,4,4,0,0,1,1.41,1.12,5.09,5.09,0,0,1,.86,1.71,7.76,7.76,0,0,1,.29,2.15,2.12,2.12,0,0,1-.1.78.35.35,0,0,1-.32.2H199.1a2.89,2.89,0,0,0,.86,1.89,2.93,2.93,0,0,0,2,.63,5.83,5.83,0,0,0,1.32-.17,7.33,7.33,0,0,0,1.32-.45.35.35,0,0,1,.52.2l.4,1a.68.68,0,0,1,.05.35c0,.09-.1.16-.23.23a7.37,7.37,0,0,1-1.69.68A7.84,7.84,0,0,1,201.66,206Zm-.14-8.9a2,2,0,0,0-1.64.7,3.43,3.43,0,0,0-.76,1.8h4.5a4.19,4.19,0,0,0-.16-.95,2.58,2.58,0,0,0-.41-.79,2.14,2.14,0,0,0-.65-.55A1.82,1.82,0,0,0,201.52,197.13Z" transform="translate(-1.01)"/><path d="M216.56,205.89a2.2,2.2,0,0,1-1.05-.25,1.54,1.54,0,0,1-.73-.83,3.22,3.22,0,0,1-1.26.89,4.19,4.19,0,0,1-3.4-.06,3.65,3.65,0,0,1-1.34-1.09,4.83,4.83,0,0,1-.82-1.67,7.57,7.57,0,0,1-.28-2.13,7.47,7.47,0,0,1,.36-2.4,5.31,5.31,0,0,1,1-1.79,4,4,0,0,1,1.44-1.11,4.09,4.09,0,0,1,1.74-.38,3.83,3.83,0,0,1,1.34.24,3.1,3.1,0,0,1,1.06.64v-5.12c0-.21.11-.32.34-.32h1.72a.3.3,0,0,1,.34.32v12.38a.89.89,0,0,0,.13.55.7.7,0,0,0,.49.21.3.3,0,0,1,.3.34v1a.44.44,0,0,1-.34.46A3.17,3.17,0,0,1,216.56,205.89Zm-2-7.8a2.78,2.78,0,0,0-.92-.7,2.57,2.57,0,0,0-1.08-.24,2.08,2.08,0,0,0-1.79.9,4.36,4.36,0,0,0-.65,2.6,6,6,0,0,0,.13,1.29,3,3,0,0,0,.41,1.06,2,2,0,0,0,.72.71,2.06,2.06,0,0,0,1.06.26,2.89,2.89,0,0,0,.88-.14,1.71,1.71,0,0,0,.7-.42,1.63,1.63,0,0,0,.42-.79,6,6,0,0,0,.12-1.35Z" transform="translate(-1.01)"/><path d="M223.24,197.25c.37,1.24.7,2.37,1,3.39l.78,2.73c.22-.8.48-1.69.77-2.68s.62-2.12,1-3.4l1.62-5.48a.49.49,0,0,1,.54-.38h1.66c.28,0,.37.15.28.44l-4.42,13.6a.71.71,0,0,1-.19.28.7.7,0,0,1-.37.08h-1.84a.72.72,0,0,1-.38-.08.49.49,0,0,1-.18-.28L219,191.83a.29.29,0,0,1,0-.29.3.3,0,0,1,.26-.11h1.82a.5.5,0,0,1,.54.38Z" transform="translate(-1.01)"/><path d="M238.36,205.53a2.53,2.53,0,0,1-.17-.46,3.42,3.42,0,0,1-.13-.56,3.43,3.43,0,0,1-1.25,1.11,3.56,3.56,0,0,1-1.67.41,4.12,4.12,0,0,1-1.84-.39,3.65,3.65,0,0,1-1.34-1.09,4.83,4.83,0,0,1-.82-1.67,7.57,7.57,0,0,1-.28-2.13,7.47,7.47,0,0,1,.36-2.4,5.47,5.47,0,0,1,1-1.79,3.93,3.93,0,0,1,1.43-1.11,4.09,4.09,0,0,1,1.74-.38,3.44,3.44,0,0,1,1.56.36,3,3,0,0,1,1.1.88l.06-.68a.36.36,0,0,1,.12-.29.52.52,0,0,1,.32-.07h1.32c.25,0,.38.11.38.32s0,.34,0,.61,0,.58,0,.93,0,.72,0,1.11,0,.78,0,1.15v1.9c0,.59,0,1.13,0,1.62s.06.92.1,1.29.06.66.1.89,0,.37,0,.42a.3.3,0,0,1-.34.32H238.8A.43.43,0,0,1,238.36,205.53Zm-.58-7.28a2.86,2.86,0,0,0-.9-.81,2.31,2.31,0,0,0-1.12-.29,2.05,2.05,0,0,0-1.78.9,4.44,4.44,0,0,0-.64,2.6,6.73,6.73,0,0,0,.12,1.29,3.24,3.24,0,0,0,.39,1.06,1.93,1.93,0,0,0,.71.71,2.06,2.06,0,0,0,1.06.26,1.85,1.85,0,0,0,.81-.18,2.22,2.22,0,0,0,.63-.46,2.4,2.4,0,0,0,.56-1.09,6.12,6.12,0,0,0,.16-1.33Z" transform="translate(-1.01)"/><path d="M245.36,205.91a2.83,2.83,0,0,1-1-.15,1.86,1.86,0,0,1-.77-.51,3.53,3.53,0,0,1-.62-2.4v-7c0-1,0-1.75,0-2.37s0-1.12-.05-1.5,0-.66,0-.83a2.88,2.88,0,0,1,0-.36q0-.3.36-.3h1.6a.38.38,0,0,1,.42.32c0,.13.05.38.07.74s0,.8,0,1.31,0,1.09,0,1.74,0,1.32,0,2v6.54a1.08,1.08,0,0,0,.14.64.55.55,0,0,0,.48.2h.2c.12,0,.19,0,.22.07a.76.76,0,0,1,0,.27v.94a.43.43,0,0,1-.22.42,2.49,2.49,0,0,1-.39.14A2.15,2.15,0,0,1,245.36,205.91Z" transform="translate(-1.01)"/><path d="M253.9,205.67a4.26,4.26,0,0,1-1.76.36,4.12,4.12,0,0,1-1.58-.28,2.94,2.94,0,0,1-1.16-.8,3.19,3.19,0,0,1-.72-1.33,7.08,7.08,0,0,1-.22-2v-6.08c0-.21.11-.32.34-.32h1.72a.3.3,0,0,1,.34.32v5.3c0,.36,0,.67,0,.93a5.74,5.74,0,0,0,.06.67,1.52,1.52,0,0,0,.13.48,2.12,2.12,0,0,0,.21.36,1.91,1.91,0,0,0,1.52.52,3.37,3.37,0,0,0,.87-.12,2.16,2.16,0,0,0,.75-.34,1.08,1.08,0,0,0,.4-.45,2.41,2.41,0,0,0,.16-.73c0-.25,0-.58,0-1v-5.65c0-.21.12-.32.36-.32h1.7a.3.3,0,0,1,.34.32v6.26c0,.43,0,.84,0,1.24s0,.77,0,1.1,0,.62,0,.85,0,.39,0,.47-.12.32-.36.32h-1.54c-.14,0-.23,0-.27-.07a.45.45,0,0,1-.11-.25l-.08-.76A3.67,3.67,0,0,1,253.9,205.67Z" transform="translate(-1.01)"/><path d="M264.69,206a5.76,5.76,0,0,1-2.25-.4,4.26,4.26,0,0,1-1.56-1.11,4.65,4.65,0,0,1-.94-1.69,7.19,7.19,0,0,1-.31-2.12,6.8,6.8,0,0,1,.37-2.32,5.15,5.15,0,0,1,1-1.78,4.63,4.63,0,0,1,1.56-1.14,4.76,4.76,0,0,1,2-.4,4.49,4.49,0,0,1,2,.4,3.93,3.93,0,0,1,1.4,1.12,4.93,4.93,0,0,1,.87,1.71,7.76,7.76,0,0,1,.29,2.15,2.12,2.12,0,0,1-.1.78.35.35,0,0,1-.33.2h-6.52A2.59,2.59,0,0,0,265,204a5.68,5.68,0,0,0,1.31-.17,6.83,6.83,0,0,0,1.32-.45.34.34,0,0,1,.52.2l.4,1a.61.61,0,0,1,.06.35.42.42,0,0,1-.23.23,7.37,7.37,0,0,1-1.69.68A7.86,7.86,0,0,1,264.69,206Zm-.13-8.9a2,2,0,0,0-1.64.7,3.53,3.53,0,0,0-.77,1.8h4.5a3.7,3.7,0,0,0-.15-.95,2.4,2.4,0,0,0-.42-.79,2.11,2.11,0,0,0-.64-.55A1.82,1.82,0,0,0,264.56,197.13Z" transform="translate(-1.01)"/><path d="M276.33,193.29c-.24,0-.36-.11-.36-.34v-2c0-.23.12-.34.36-.34h2c.26,0,.38.11.38.34v2c0,.23-.12.34-.38.34Zm.16,12.54a.3.3,0,0,1-.34-.32v-9.92a.3.3,0,0,1,.34-.32h1.72c.23,0,.34.11.34.32v9.92c0,.21-.11.32-.34.32Z" transform="translate(-1.01)"/><path d="M281.35,203.43c.14-.27.32-.33.56-.18a6.38,6.38,0,0,0,1.21.57,4.34,4.34,0,0,0,1.41.23,2.22,2.22,0,0,0,1.3-.35,1,1,0,0,0,.5-.89.88.88,0,0,0-.5-.82,7.32,7.32,0,0,0-1.64-.58c-.4-.11-.79-.23-1.18-.38a4,4,0,0,1-1-.58,2.68,2.68,0,0,1-.72-.88,2.81,2.81,0,0,1-.27-1.3,3,3,0,0,1,.3-1.36,2.91,2.91,0,0,1,.83-1,3.9,3.9,0,0,1,1.26-.62,6.21,6.21,0,0,1,3.38.05,4.74,4.74,0,0,1,1.37.68.4.4,0,0,1,.1.6l-.56.88c-.09.15-.18.22-.27.23a.53.53,0,0,1-.31-.09,4.92,4.92,0,0,0-1.09-.46,4,4,0,0,0-1-.14,2.8,2.8,0,0,0-1.18.24.88.88,0,0,0-.52.86.76.76,0,0,0,.17.5,1.69,1.69,0,0,0,.46.35,4.89,4.89,0,0,0,.65.27l.74.22c.38.11.76.23,1.15.38a4.52,4.52,0,0,1,1.07.56,2.72,2.72,0,0,1,.78.87,2.62,2.62,0,0,1,.3,1.31,3.26,3.26,0,0,1-.31,1.46,3,3,0,0,1-.85,1.08,3.76,3.76,0,0,1-1.27.67,5.19,5.19,0,0,1-1.55.23,7,7,0,0,1-2.19-.32,4.81,4.81,0,0,1-1.49-.76.45.45,0,0,1-.1-.6Z" transform="translate(-1.01)"/><path d="M28.88,229.89a2.26,2.26,0,0,1-1.05-.25,1.54,1.54,0,0,1-.73-.83,3.22,3.22,0,0,1-1.26.89,4.05,4.05,0,0,1-1.56.33,4.15,4.15,0,0,1-1.84-.39,3.73,3.73,0,0,1-1.34-1.09,5,5,0,0,1-.82-1.67,7.57,7.57,0,0,1-.28-2.13,7.47,7.47,0,0,1,.36-2.4,5.49,5.49,0,0,1,1-1.79,4,4,0,0,1,1.44-1.11,4.16,4.16,0,0,1,1.74-.38,3.78,3.78,0,0,1,1.34.24,3,3,0,0,1,1.06.64v-5.12c0-.21.11-.32.34-.32H29c.23,0,.34.11.34.32v12.38a.89.89,0,0,0,.13.55.72.72,0,0,0,.49.21.3.3,0,0,1,.3.34v1a.43.43,0,0,1-.34.46A3.09,3.09,0,0,1,28.88,229.89Zm-2-7.8a2.69,2.69,0,0,0-.92-.7,2.57,2.57,0,0,0-1.08-.24,2.08,2.08,0,0,0-1.79.9,4.43,4.43,0,0,0-.65,2.6,6,6,0,0,0,.13,1.29A3.26,3.26,0,0,0,23,227a2.12,2.12,0,0,0,.72.71,2.08,2.08,0,0,0,1.06.26,2.84,2.84,0,0,0,.88-.14,1.71,1.71,0,0,0,.7-.42,1.63,1.63,0,0,0,.42-.79,6,6,0,0,0,.12-1.35Z" transform="translate(-1.01)"/><path d="M36.78,230a5.69,5.69,0,0,1-2.25-.4A4.3,4.3,0,0,1,33,228.52a4.78,4.78,0,0,1-.93-1.69,6.88,6.88,0,0,1-.31-2.12,7.06,7.06,0,0,1,.36-2.32,5.33,5.33,0,0,1,1-1.78,4.49,4.49,0,0,1,1.55-1.14,4.83,4.83,0,0,1,2-.4,4.46,4.46,0,0,1,2,.4A4,4,0,0,1,40,220.59a4.92,4.92,0,0,1,.86,1.71,7.76,7.76,0,0,1,.29,2.15,1.92,1.92,0,0,1-.1.78.34.34,0,0,1-.32.2H34.22a2.57,2.57,0,0,0,2.9,2.52,5.83,5.83,0,0,0,1.32-.17,6.83,6.83,0,0,0,1.32-.45.35.35,0,0,1,.52.2l.4,1a.68.68,0,0,1,0,.35c0,.09-.1.16-.23.23a7.19,7.19,0,0,1-1.69.68A7.78,7.78,0,0,1,36.78,230Zm-.14-8.9a2,2,0,0,0-1.64.7,3.52,3.52,0,0,0-.76,1.8h4.5a3.7,3.7,0,0,0-.16-.95,2.38,2.38,0,0,0-.41-.79,2.14,2.14,0,0,0-.65-.55A1.79,1.79,0,0,0,36.64,221.13Z" transform="translate(-1.01)"/><path d="M43.36,227.43c.13-.27.32-.33.56-.18a6.11,6.11,0,0,0,1.21.57,4.25,4.25,0,0,0,1.41.23,2.24,2.24,0,0,0,1.3-.35,1.05,1.05,0,0,0,.5-.89.9.9,0,0,0-.5-.82,7.32,7.32,0,0,0-1.64-.58c-.4-.11-.79-.23-1.18-.38a3.82,3.82,0,0,1-1-.58,2.68,2.68,0,0,1-.72-.88,2.81,2.81,0,0,1-.27-1.3,3,3,0,0,1,.3-1.36,2.91,2.91,0,0,1,.83-1,3.71,3.71,0,0,1,1.26-.62,6.21,6.21,0,0,1,3.38.05,4.87,4.87,0,0,1,1.37.68.41.41,0,0,1,.1.6l-.56.88c-.09.15-.18.22-.27.23a.51.51,0,0,1-.31-.09,5.12,5.12,0,0,0-1.09-.46,4,4,0,0,0-1-.14,2.8,2.8,0,0,0-1.18.24.87.87,0,0,0-.52.86.76.76,0,0,0,.17.5,1.55,1.55,0,0,0,.46.35,4.39,4.39,0,0,0,.65.27l.74.22c.37.11.76.23,1.15.38a4.72,4.72,0,0,1,1.07.56,2.72,2.72,0,0,1,.78.87,2.62,2.62,0,0,1,.3,1.31,3.26,3.26,0,0,1-.31,1.46,3.12,3.12,0,0,1-.85,1.08,3.76,3.76,0,0,1-1.27.67,5.23,5.23,0,0,1-1.55.23,6.92,6.92,0,0,1-2.19-.32,4.81,4.81,0,0,1-1.49-.76.44.44,0,0,1-.1-.6Z" transform="translate(-1.01)"/><path d="M57.26,230a5.69,5.69,0,0,1-2.25-.4,4.3,4.3,0,0,1-1.57-1.11,4.49,4.49,0,0,1-.93-1.69,6.88,6.88,0,0,1-.31-2.12,7.06,7.06,0,0,1,.36-2.32,5.17,5.17,0,0,1,1-1.78,4.49,4.49,0,0,1,1.55-1.14,4.8,4.8,0,0,1,2-.4,4.46,4.46,0,0,1,2,.4,4,4,0,0,1,1.41,1.12,5.09,5.09,0,0,1,.86,1.71,7.76,7.76,0,0,1,.29,2.15,2.12,2.12,0,0,1-.1.78.34.34,0,0,1-.32.2H54.7A2.57,2.57,0,0,0,57.6,228a5.83,5.83,0,0,0,1.32-.17,7.07,7.07,0,0,0,1.32-.45.35.35,0,0,1,.52.2l.4,1a.68.68,0,0,1,.05.35c0,.09-.1.16-.23.23a7.37,7.37,0,0,1-1.69.68A7.84,7.84,0,0,1,57.26,230Zm-.14-8.9a2,2,0,0,0-1.64.7,3.52,3.52,0,0,0-.76,1.8h4.5a3.7,3.7,0,0,0-.16-.95,2.58,2.58,0,0,0-.41-.79,2.14,2.14,0,0,0-.65-.55A1.79,1.79,0,0,0,57.12,221.13Z" transform="translate(-1.01)"/><path d="M64.22,229.83c-.23,0-.34-.11-.34-.32v-6.26c0-.41,0-.82,0-1.23s0-.78,0-1.11,0-.62,0-.85,0-.39,0-.47.11-.32.34-.32h1.54a.38.38,0,0,1,.27.07.49.49,0,0,1,.11.23c0,.25.07.57.1,1s0,.72.06,1a5.62,5.62,0,0,1,1.25-1.76,2.42,2.42,0,0,1,1.69-.68.84.84,0,0,1,.45.09.37.37,0,0,1,.13.33v1.36a.33.33,0,0,1-.34.38,3.3,3.3,0,0,0-1.42.49,3.11,3.11,0,0,0-1,1,4.21,4.21,0,0,0-.31.64,3.92,3.92,0,0,0-.2.77,8.61,8.61,0,0,0-.1,1q0,.59,0,1.38v2.94c0,.21-.11.32-.34.32Z" transform="translate(-1.01)"/><path d="M71.7,217.29c-.24,0-.36-.11-.36-.34v-2c0-.23.12-.34.36-.34h2c.25,0,.38.11.38.34v2c0,.23-.13.34-.38.34Zm.16,12.54c-.23,0-.34-.11-.34-.32v-9.92c0-.21.11-.32.34-.32h1.72a.3.3,0,0,1,.34.32v9.92a.3.3,0,0,1-.34.32Z" transform="translate(-1.01)"/><path d="M83.66,229.53a2.53,2.53,0,0,1-.17-.46,3.42,3.42,0,0,1-.13-.56,3.43,3.43,0,0,1-1.25,1.11,3.56,3.56,0,0,1-1.67.41,4.12,4.12,0,0,1-1.84-.39,3.65,3.65,0,0,1-1.34-1.09,4.83,4.83,0,0,1-.82-1.67,7.57,7.57,0,0,1-.28-2.13,7.47,7.47,0,0,1,.36-2.4,5.47,5.47,0,0,1,1-1.79,3.93,3.93,0,0,1,1.43-1.11,4.09,4.09,0,0,1,1.74-.38,3.44,3.44,0,0,1,1.56.36,3,3,0,0,1,1.1.88l.06-.68a.36.36,0,0,1,.12-.29.52.52,0,0,1,.32-.07h1.32c.25,0,.38.11.38.32s0,.34,0,.61,0,.58,0,.93,0,.72,0,1.11,0,.78,0,1.15v1.9c0,.59,0,1.13,0,1.62s.06.92.1,1.29.06.66.1.89,0,.37,0,.42a.3.3,0,0,1-.34.32H84.1A.43.43,0,0,1,83.66,229.53Zm-.58-7.28a2.86,2.86,0,0,0-.9-.81,2.31,2.31,0,0,0-1.12-.29,2.05,2.05,0,0,0-1.78.9,4.44,4.44,0,0,0-.64,2.6,6.73,6.73,0,0,0,.12,1.29,3.24,3.24,0,0,0,.39,1.06,1.93,1.93,0,0,0,.71.71,2.06,2.06,0,0,0,1.06.26,1.85,1.85,0,0,0,.81-.18,2.22,2.22,0,0,0,.63-.46,2.4,2.4,0,0,0,.56-1.09,6.12,6.12,0,0,0,.16-1.33Z" transform="translate(-1.01)"/><path d="M90.66,229.91a2.83,2.83,0,0,1-1-.15,1.86,1.86,0,0,1-.77-.51,3.53,3.53,0,0,1-.62-2.4v-7c0-1,0-1.75,0-2.37s0-1.12,0-1.5,0-.66,0-.83a2.88,2.88,0,0,1,0-.36q0-.3.36-.3h1.6a.38.38,0,0,1,.42.32c0,.13,0,.38.07.74s0,.8.05,1.31,0,1.09,0,1.74,0,1.32,0,2v6.54a1.08,1.08,0,0,0,.14.64.55.55,0,0,0,.48.2h.2c.12,0,.19,0,.22.07a.76.76,0,0,1,0,.27v.94a.43.43,0,0,1-.22.42,2.49,2.49,0,0,1-.39.14A2.15,2.15,0,0,1,90.66,229.91Z" transform="translate(-1.01)"/><path d="M94.1,217.29c-.24,0-.36-.11-.36-.34v-2c0-.23.12-.34.36-.34h2c.25,0,.38.11.38.34v2c0,.23-.13.34-.38.34Zm.16,12.54c-.23,0-.34-.11-.34-.32v-9.92c0-.21.11-.32.34-.32H96a.3.3,0,0,1,.34.32v9.92a.3.3,0,0,1-.34.32Z" transform="translate(-1.01)"/><path d="M103.1,221.17H98.78c-.22,0-.32-.12-.32-.36v-1.2c0-.23.1-.34.32-.34h7a.3.3,0,0,1,.34.34v.56a1.64,1.64,0,0,1-.3.94l-4.54,6.82h4.62c.22,0,.34.12.34.36v1.2a.3.3,0,0,1-.34.34H98.56c-.22,0-.32-.11-.32-.34v-.56a1.64,1.64,0,0,1,.3-.94Z" transform="translate(-1.01)"/><path d="M112.4,230a5.69,5.69,0,0,1-2.25-.4,4.21,4.21,0,0,1-1.57-1.11,4.49,4.49,0,0,1-.93-1.69,6.88,6.88,0,0,1-.31-2.12,7.06,7.06,0,0,1,.36-2.32,5.17,5.17,0,0,1,1-1.78,4.49,4.49,0,0,1,1.55-1.14,4.8,4.8,0,0,1,2-.4,4.49,4.49,0,0,1,2,.4,4,4,0,0,1,1.41,1.12,5.09,5.09,0,0,1,.86,1.71,7.76,7.76,0,0,1,.29,2.15,2.12,2.12,0,0,1-.1.78.35.35,0,0,1-.32.2h-6.52a2.89,2.89,0,0,0,.86,1.89,2.93,2.93,0,0,0,2,.63,5.83,5.83,0,0,0,1.32-.17,7.33,7.33,0,0,0,1.32-.45.35.35,0,0,1,.52.2l.4,1a.68.68,0,0,1,0,.35c0,.09-.1.16-.23.23a7.37,7.37,0,0,1-1.69.68A7.84,7.84,0,0,1,112.4,230Zm-.14-8.9a2,2,0,0,0-1.64.7,3.43,3.43,0,0,0-.76,1.8h4.5a4.19,4.19,0,0,0-.16-.95,2.58,2.58,0,0,0-.41-.79,2.14,2.14,0,0,0-.65-.55A1.82,1.82,0,0,0,112.26,221.13Z" transform="translate(-1.01)"/><path d="M127.3,229.89a2.2,2.2,0,0,1-1-.25,1.54,1.54,0,0,1-.73-.83,3.22,3.22,0,0,1-1.26.89,4.19,4.19,0,0,1-3.4-.06,3.65,3.65,0,0,1-1.34-1.09,4.83,4.83,0,0,1-.82-1.67,7.57,7.57,0,0,1-.28-2.13,7.47,7.47,0,0,1,.36-2.4,5.31,5.31,0,0,1,1-1.79,4,4,0,0,1,1.44-1.11,4.09,4.09,0,0,1,1.74-.38,3.83,3.83,0,0,1,1.34.24,3.1,3.1,0,0,1,1.06.64v-5.12c0-.21.11-.32.34-.32h1.72a.3.3,0,0,1,.34.32v12.38a.89.89,0,0,0,.13.55.7.7,0,0,0,.49.21.3.3,0,0,1,.3.34v1a.44.44,0,0,1-.34.46A3.17,3.17,0,0,1,127.3,229.89Zm-2-7.8a2.78,2.78,0,0,0-.92-.7,2.57,2.57,0,0,0-1.08-.24,2.08,2.08,0,0,0-1.79.9,4.36,4.36,0,0,0-.65,2.6,6,6,0,0,0,.13,1.29,3,3,0,0,0,.41,1.06,2,2,0,0,0,.72.71,2.06,2.06,0,0,0,1.06.26,2.89,2.89,0,0,0,.88-.14,1.71,1.71,0,0,0,.7-.42,1.63,1.63,0,0,0,.42-.79,6,6,0,0,0,.12-1.35Z" transform="translate(-1.01)"/><path d="M138.42,219.27h2.46c.21,0,.32.11.32.34v1.22c0,.23-.11.34-.32.34h-2.46v5.14a3.89,3.89,0,0,0,.07.83,1.05,1.05,0,0,0,.25.53,1.19,1.19,0,0,0,1,.34,3.36,3.36,0,0,0,.65-.07l.63-.15a.34.34,0,0,1,.48.24l.28,1a.49.49,0,0,1,0,.34.59.59,0,0,1-.26.22,4.26,4.26,0,0,1-1,.32,6.1,6.1,0,0,1-1.27.14,3.31,3.31,0,0,1-2.32-.72,3.76,3.76,0,0,1-.9-2.84v-5.3h-1.36c-.22,0-.32-.11-.32-.34v-1.22c0-.23.1-.34.32-.34H136v-2.78c0-.21.11-.32.34-.32h1.72a.3.3,0,0,1,.34.32Z" transform="translate(-1.01)"/><path d="M147.68,230a4.42,4.42,0,0,1-3.5-1.38,5.63,5.63,0,0,1-1.22-3.88,6.07,6.07,0,0,1,1.33-4.24,4.81,4.81,0,0,1,3.75-1.46,4.43,4.43,0,0,1,3.5,1.38,5.68,5.68,0,0,1,1.22,3.88,6.12,6.12,0,0,1-1.33,4.24A4.84,4.84,0,0,1,147.68,230Zm.06-2.08a2.23,2.23,0,0,0,1.87-.87,4.29,4.29,0,0,0,.67-2.61,6.74,6.74,0,0,0-.12-1.32,3.28,3.28,0,0,0-.4-1.05,2,2,0,0,0-1.78-.95,2.22,2.22,0,0,0-1.87.87,4.22,4.22,0,0,0-.67,2.61,6.74,6.74,0,0,0,.12,1.32A3.06,3.06,0,0,0,146,227a2,2,0,0,0,.71.7A2,2,0,0,0,147.74,228Z" transform="translate(-1.01)"/><path d="M162,220.39a4.07,4.07,0,0,1,1.27-.95,3.63,3.63,0,0,1,1.65-.37,4,4,0,0,1,1.82.42,2.72,2.72,0,0,1,1.24,1.2,4,4,0,0,1,1.48-1.2,4.22,4.22,0,0,1,1.86-.42,4,4,0,0,1,1.54.28,3.1,3.1,0,0,1,1.14.8,3.49,3.49,0,0,1,.75,1.33,7,7,0,0,1,.23,2v6.08c0,.21-.12.32-.36.32h-1.7c-.23,0-.34-.11-.34-.32v-5.3c0-.36,0-.67,0-.93s0-.48-.07-.67a2.31,2.31,0,0,0-.14-.48,1.69,1.69,0,0,0-.23-.36,1.19,1.19,0,0,0-.61-.4,2.91,2.91,0,0,0-.85-.12,3.25,3.25,0,0,0-.78.11,2,2,0,0,0-.72.33,1.3,1.3,0,0,0-.42.47,2,2,0,0,0-.16.71,7,7,0,0,0,0,1c0,.39,0,.82,0,1.27v4.4a.3.3,0,0,1-.34.32h-1.72c-.23,0-.34-.11-.34-.32v-5.3c0-.36,0-.67,0-.93s0-.48-.07-.67a2.31,2.31,0,0,0-.14-.48,1.69,1.69,0,0,0-.23-.36,1.19,1.19,0,0,0-.61-.4,2.91,2.91,0,0,0-.85-.12,3.25,3.25,0,0,0-.78.11,2,2,0,0,0-.72.33,1,1,0,0,0-.4.45,2.14,2.14,0,0,0-.16.73,8.7,8.7,0,0,0,0,1v5.67a.3.3,0,0,1-.34.32H160.1c-.23,0-.34-.11-.34-.32v-6.26c0-.41,0-.82,0-1.23s0-.78,0-1.11,0-.62,0-.85,0-.39,0-.47.11-.32.34-.32h1.54a.38.38,0,0,1,.27.07.61.61,0,0,1,.11.23C162,219.8,162,220.07,162,220.39Z" transform="translate(-1.01)"/><path d="M181.82,230a4.42,4.42,0,0,1-3.5-1.38,5.63,5.63,0,0,1-1.22-3.88,6.07,6.07,0,0,1,1.33-4.24,4.81,4.81,0,0,1,3.75-1.46,4.43,4.43,0,0,1,3.5,1.38,5.68,5.68,0,0,1,1.22,3.88,6.12,6.12,0,0,1-1.33,4.24A4.84,4.84,0,0,1,181.82,230Zm.06-2.08a2.23,2.23,0,0,0,1.87-.87,4.29,4.29,0,0,0,.67-2.61,6.74,6.74,0,0,0-.12-1.32,3.28,3.28,0,0,0-.4-1.05,2,2,0,0,0-1.78-.95,2.22,2.22,0,0,0-1.87.87,4.22,4.22,0,0,0-.67,2.61,6.74,6.74,0,0,0,.12,1.32,3.06,3.06,0,0,0,.4,1.05,2,2,0,0,0,.71.7A2,2,0,0,0,181.88,228Z" transform="translate(-1.01)"/><path d="M197.38,229.89a2.2,2.2,0,0,1-1-.25,1.54,1.54,0,0,1-.73-.83,3.22,3.22,0,0,1-1.26.89,4.19,4.19,0,0,1-3.4-.06,3.65,3.65,0,0,1-1.34-1.09,4.83,4.83,0,0,1-.82-1.67,7.57,7.57,0,0,1-.28-2.13,7.47,7.47,0,0,1,.36-2.4,5.31,5.31,0,0,1,1-1.79,4,4,0,0,1,1.44-1.11,4.09,4.09,0,0,1,1.74-.38,3.83,3.83,0,0,1,1.34.24,3.1,3.1,0,0,1,1.06.64v-5.12c0-.21.11-.32.34-.32h1.72a.3.3,0,0,1,.34.32v12.38a.89.89,0,0,0,.13.55.7.7,0,0,0,.49.21.3.3,0,0,1,.3.34v1a.44.44,0,0,1-.34.46A3.17,3.17,0,0,1,197.38,229.89Zm-2-7.8a2.78,2.78,0,0,0-.92-.7,2.57,2.57,0,0,0-1.08-.24,2.08,2.08,0,0,0-1.79.9,4.36,4.36,0,0,0-.65,2.6,6,6,0,0,0,.13,1.29,3,3,0,0,0,.41,1.06,2,2,0,0,0,.72.71,2.06,2.06,0,0,0,1.06.26,2.89,2.89,0,0,0,.88-.14,1.71,1.71,0,0,0,.7-.42,1.63,1.63,0,0,0,.42-.79,6,6,0,0,0,.12-1.35Z" transform="translate(-1.01)"/><path d="M205.28,230a5.69,5.69,0,0,1-2.25-.4,4.21,4.21,0,0,1-1.57-1.11,4.49,4.49,0,0,1-.93-1.69,6.88,6.88,0,0,1-.31-2.12,7.06,7.06,0,0,1,.36-2.32,5.17,5.17,0,0,1,1-1.78,4.49,4.49,0,0,1,1.55-1.14,4.8,4.8,0,0,1,2-.4,4.49,4.49,0,0,1,2,.4,4,4,0,0,1,1.41,1.12,5.09,5.09,0,0,1,.86,1.71,7.76,7.76,0,0,1,.29,2.15,2.12,2.12,0,0,1-.1.78.35.35,0,0,1-.32.2h-6.52a2.89,2.89,0,0,0,.86,1.89,2.93,2.93,0,0,0,2,.63,5.83,5.83,0,0,0,1.32-.17,7.33,7.33,0,0,0,1.32-.45.35.35,0,0,1,.52.2l.4,1a.68.68,0,0,1,0,.35c0,.09-.1.16-.23.23a7.37,7.37,0,0,1-1.69.68A7.84,7.84,0,0,1,205.28,230Zm-.14-8.9a2,2,0,0,0-1.64.7,3.43,3.43,0,0,0-.76,1.8h4.5a4.19,4.19,0,0,0-.16-.95,2.58,2.58,0,0,0-.41-.79,2.14,2.14,0,0,0-.65-.55A1.82,1.82,0,0,0,205.14,221.13Z" transform="translate(-1.01)"/><path d="M214.24,229.91a2.83,2.83,0,0,1-1-.15,1.86,1.86,0,0,1-.77-.51,3.53,3.53,0,0,1-.62-2.4v-7c0-1,0-1.75,0-2.37s0-1.12,0-1.5,0-.66-.05-.83a2.88,2.88,0,0,1,0-.36q0-.3.36-.3h1.6a.38.38,0,0,1,.42.32c0,.13.05.38.07.74s0,.8,0,1.31,0,1.09,0,1.74,0,1.32,0,2v6.54a1.08,1.08,0,0,0,.14.64.55.55,0,0,0,.48.2h.2c.12,0,.19,0,.22.07a.76.76,0,0,1,0,.27v.94a.43.43,0,0,1-.22.42,2.49,2.49,0,0,1-.39.14A2.15,2.15,0,0,1,214.24,229.91Z" transform="translate(-1.01)"/><path d="M220.7,221.25c.37,1.24.7,2.37,1,3.39l.78,2.73c.22-.8.48-1.69.77-2.68s.62-2.12,1-3.4l1.62-5.48a.49.49,0,0,1,.54-.38h1.66c.28,0,.37.15.28.44l-4.42,13.6a.71.71,0,0,1-.19.28.7.7,0,0,1-.37.08h-1.84a.72.72,0,0,1-.38-.08.49.49,0,0,1-.18-.28l-4.56-13.64a.29.29,0,0,1,0-.29.3.3,0,0,1,.26-.11h1.82a.5.5,0,0,1,.54.38Z" transform="translate(-1.01)"/><path d="M235.82,229.53a2.53,2.53,0,0,1-.17-.46,3.42,3.42,0,0,1-.13-.56,3.43,3.43,0,0,1-1.25,1.11,3.56,3.56,0,0,1-1.67.41,4.12,4.12,0,0,1-1.84-.39,3.65,3.65,0,0,1-1.34-1.09,4.83,4.83,0,0,1-.82-1.67,7.57,7.57,0,0,1-.28-2.13,7.47,7.47,0,0,1,.36-2.4,5.47,5.47,0,0,1,1-1.79,3.93,3.93,0,0,1,1.43-1.11,4.09,4.09,0,0,1,1.74-.38,3.44,3.44,0,0,1,1.56.36,3,3,0,0,1,1.1.88l.06-.68a.36.36,0,0,1,.12-.29.52.52,0,0,1,.32-.07h1.32c.25,0,.38.11.38.32s0,.34,0,.61,0,.58,0,.93,0,.72,0,1.11,0,.78,0,1.15v1.9c0,.59,0,1.13.05,1.62s.06.92.1,1.29.06.66.1.89.05.37.05.42a.3.3,0,0,1-.34.32h-1.34A.43.43,0,0,1,235.82,229.53Zm-.58-7.28a2.86,2.86,0,0,0-.9-.81,2.31,2.31,0,0,0-1.12-.29,2.05,2.05,0,0,0-1.78.9,4.44,4.44,0,0,0-.64,2.6,6.73,6.73,0,0,0,.12,1.29,3.24,3.24,0,0,0,.39,1.06,1.93,1.93,0,0,0,.71.71,2.06,2.06,0,0,0,1.06.26,1.85,1.85,0,0,0,.81-.18,2.22,2.22,0,0,0,.63-.46,2.4,2.4,0,0,0,.56-1.09,6.12,6.12,0,0,0,.16-1.33Z" transform="translate(-1.01)"/><path d="M242.82,229.91a2.83,2.83,0,0,1-.95-.15,1.86,1.86,0,0,1-.77-.51,3.53,3.53,0,0,1-.62-2.4v-7c0-1,0-1.75,0-2.37s0-1.12-.05-1.5,0-.66,0-.83a2.88,2.88,0,0,1,0-.36q0-.3.36-.3h1.6a.38.38,0,0,1,.42.32c0,.13.05.38.07.74s0,.8.05,1.31,0,1.09,0,1.74,0,1.32,0,2v6.54a1.08,1.08,0,0,0,.14.64.55.55,0,0,0,.48.2h.2c.12,0,.19,0,.22.07a.76.76,0,0,1,0,.27v.94a.43.43,0,0,1-.22.42,2.49,2.49,0,0,1-.39.14A2.15,2.15,0,0,1,242.82,229.91Z" transform="translate(-1.01)"/><path d="M251.36,229.67a4.26,4.26,0,0,1-1.76.36,4.12,4.12,0,0,1-1.58-.28,2.94,2.94,0,0,1-1.16-.8,3.19,3.19,0,0,1-.72-1.33,7.08,7.08,0,0,1-.22-2v-6.08c0-.21.11-.32.34-.32H248a.3.3,0,0,1,.34.32v5.3c0,.36,0,.67,0,.93a5.74,5.74,0,0,0,.06.67,1.52,1.52,0,0,0,.13.48,2.12,2.12,0,0,0,.21.36,1.91,1.91,0,0,0,1.52.52,3.37,3.37,0,0,0,.87-.12,2.16,2.16,0,0,0,.75-.34,1.08,1.08,0,0,0,.4-.45,2.41,2.41,0,0,0,.16-.73c0-.25,0-.58,0-1v-5.65c0-.21.12-.32.36-.32h1.7a.3.3,0,0,1,.34.32v6.26c0,.43,0,.84,0,1.24s0,.77,0,1.1,0,.62,0,.85,0,.39,0,.47-.12.32-.36.32H253.1c-.14,0-.23,0-.27-.07a.45.45,0,0,1-.11-.25l-.08-.76A3.67,3.67,0,0,1,251.36,229.67Z" transform="translate(-1.01)"/><path d="M262.16,230a5.69,5.69,0,0,1-2.25-.4,4.21,4.21,0,0,1-1.57-1.11,4.49,4.49,0,0,1-.93-1.69,6.88,6.88,0,0,1-.31-2.12,7.06,7.06,0,0,1,.36-2.32,5.17,5.17,0,0,1,1-1.78,4.49,4.49,0,0,1,1.55-1.14,4.8,4.8,0,0,1,2-.4,4.49,4.49,0,0,1,2,.4,4,4,0,0,1,1.41,1.12,5.09,5.09,0,0,1,.86,1.71,7.76,7.76,0,0,1,.29,2.15,2.12,2.12,0,0,1-.1.78.35.35,0,0,1-.32.2H259.6a2.89,2.89,0,0,0,.86,1.89,2.93,2.93,0,0,0,2,.63,5.83,5.83,0,0,0,1.32-.17,7.33,7.33,0,0,0,1.32-.45.35.35,0,0,1,.52.2l.4,1a.68.68,0,0,1,.05.35c0,.09-.1.16-.23.23a7.37,7.37,0,0,1-1.69.68A7.84,7.84,0,0,1,262.16,230Zm-.14-8.9a2,2,0,0,0-1.64.7,3.43,3.43,0,0,0-.76,1.8h4.5a4.19,4.19,0,0,0-.16-.95,2.58,2.58,0,0,0-.41-.79,2.14,2.14,0,0,0-.65-.55A1.82,1.82,0,0,0,262,221.13Z" transform="translate(-1.01)"/></g><text class="i" transform="translate(788.41 30.96)">User fl<tspan class="az" x="107.13" y="0">o</tspan><tspan x="127.44" y="0">w</tspan></text><text class="ba" transform="translate(738.65 682.42)">(if er<tspan class="bb" x="40.36" y="0">r</tspan><tspan x="46.86" y="0">orS</tspan><tspan class="bc" x="75.48" y="0">t</tspan><tspan x="82.7" y="0">a</tspan><tspan class="bc" x="94" y="0">t</tspan><tspan x="101.22" y="0">e = </tspan><tspan class="bd" x="133.36" y="0">f</tspan><tspan x="139.6" y="0">alse)</tspan></text><path class="k" d="M484.44,301.25c-.31,0-.62,0-.94,0a17.5,17.5,0,1,1,17.5-17.5" transform="translate(-1.01)"/><polygon points="477.79 296.66 481.54 301.38 480.75 307.36 491.96 298.5 477.79 296.66"/></svg>