<svg xmlns="http://www.w3.org/2000/svg" viewBox="0 0 457 457">
  <defs/>
  <g transform="translate(-247.653 -647.52)">
    <path fill="#65511b" d="M247.38 1008.44l91.25 1.03-.62-22.05 12.62-16.75 39.85 9.9-38.43 26.2-3.38 1.93 355.09-.12s-35.2-26.06-47.95-46.15c-12.91-20.32-49.38-82.24-49.38-82.24l-50-54.21-15.35-10.36-25.63-26.32-9.3-4.51-21.61-29.53-7.74-2.16s-6.81-44.22-50.2-45.2L413 718.61l-.27 12.01-3.4 2.93 6.63 102.33-3.47 5.94 5.5 103.31-136.33-26.07-12.37 5.75-.06 3.01 4.36 4.11 22.01 11.5 1.02 4.03 6.63 2.16 1.02 4.03 22.05 9.5-46.4 34.03-11.1-1.25-21.44 12.51z"/>
    <linearGradient id="a" x1="201.739" x2="210.647" y1="1781.71" y2="1778.468" gradientTransform="matrix(12.274 0 0 -67.886 -2104.537 121677.61)" gradientUnits="userSpaceOnUse">
      <stop offset="0" stop-color="#c19d3b"/>
      <stop offset="1" stop-color="#65511b"/>
    </linearGradient>
    <path fill="url(#a)" d="M426.6 707.87l26.86 244.04-35.47-6.8-5.5-103.31 3.47-5.94-6.63-102.33 3.4-2.93.27-12.01 13.6-10.72z"/>
    <linearGradient id="b" x1="219.109" x2="219.562" y1="1780.966" y2="1778.31" gradientTransform="matrix(25.036 0 0 -12.792 -5195.276 23762.836)" gradientUnits="userSpaceOnUse">
      <stop offset="0" stop-color="#c19d3b"/>
      <stop offset="1" stop-color="#65511b"/>
    </linearGradient>
    <path fill="url(#b)" d="M326.31 963.11l11.08 2.25-31.76 43.73-58.24-.65 21.43-12.55 11.1 1.25 46.39-34.03z"/>
    <linearGradient id="c" x1="226.508" x2="228.072" y1="1784.668" y2="1781.059" gradientTransform="matrix(31.819 0 0 -41.355 -6759.904 74504.36)" gradientUnits="userSpaceOnUse">
      <stop offset="0" stop-color="#c19d3b"/>
      <stop offset="1" stop-color="#65511b"/>
    </linearGradient>
    <path fill="url(#c)" d="M476.8 753.07s-6.68 50.27-17.04 65.4c-7.3 9.04-13.26 19.08-17.71 29.82l5.88 53.44s9.29-18.86 56.63-45.86c14.68-8.37 35.85-10.22 51.87-29.91l-15.35-10.36-25.63-26.32-9.3-4.51-21.61-29.53-7.74-2.17z"/>
    <linearGradient id="d" x1="230.192" x2="231.598" y1="1783.099" y2="1780.414" gradientTransform="matrix(44.091 0 0 -35.032 -9687.025 63279.066)" gradientUnits="userSpaceOnUse">
      <stop offset="0" stop-color="#c19d3b"/>
      <stop offset="1" stop-color="#65511b"/>
    </linearGradient>
    <path fill="url(#d)" d="M447.93 901.74s15.43-24.23 56.63-45.86c14.64-7.69 33.58-8.27 51.87-29.91l50 54.2a256.687 256.687 0 01-62.81 21.53c-27.95 5.39-41.53 15.55-50.61 23.37a276.64 276.64 0 01-39.54 26.84l-2.83-23.1-2.71-27.07z"/>
    <linearGradient id="e" x1="231.595" x2="232.99" y1="1785.571" y2="1779.909" gradientTransform="matrix(49.718 0 0 -21.1301 -11028.4 38569.195)" gradientUnits="userSpaceOnUse">
      <stop offset="0" stop-color="#c19d3b"/>
      <stop offset="1" stop-color="#65511b"/>
    </linearGradient>
    <path fill="url(#e)" d="M453.45 951.91a245.398 245.398 0 0038.42-25.75c9.08-7.81 21.55-18 49.5-23.39a272.307 272.307 0 0065.07-22.6l25.75 43.65c-43.55 6.04-82.95 26.21-103.07 29.77-37.18 6.57-75.67-1.68-75.67-1.68z"/>
  </g>
</svg>
