<?xml version="1.0" standalone="no"?>
<!DOCTYPE svg PUBLIC "-//W3C//DTD SVG 20010904//EN"
 "http://www.w3.org/TR/2001/REC-SVG-20010904/DTD/svg10.dtd">
<svg version="1.0" xmlns="http://www.w3.org/2000/svg"
 width="700.000000pt" height="700.000000pt" viewBox="0 0 700.000000 700.000000"
 preserveAspectRatio="xMidYMid meet">
<metadata>
Created by potrace 1.11, written by Peter Selinger 2001-2013
</metadata>
<g transform="translate(0.000000,700.000000) scale(0.100000,-0.100000)"
fill="#000000" stroke="none">
<path d="M2732 6067 c-12 -7 -62 -43 -111 -82 l-90 -70 -1 -91 c0 -87 -1 -91
-30 -119 -17 -16 -28 -36 -26 -44 3 -9 8 -74 11 -146 4 -71 8 -141 10 -155 2
-14 7 -83 10 -155 4 -71 8 -141 10 -155 2 -14 7 -79 10 -145 4 -66 8 -136 10
-155 2 -19 6 -89 10 -155 4 -66 8 -136 10 -155 2 -19 7 -89 10 -155 4 -66 8
-131 10 -145 1 -14 -9 -43 -23 -65 -15 -23 -26 -55 -26 -75 0 -38 10 -234 29
-580 8 -139 11 -206 20 -370 4 -69 8 -150 10 -180 2 -30 7 -122 10 -205 4 -82
9 -167 10 -188 3 -31 0 -37 -13 -33 -10 3 -33 8 -52 11 -19 3 -66 12 -105 20
-38 8 -144 28 -235 45 -91 17 -208 40 -260 50 -52 11 -113 22 -135 26 -22 3
-43 8 -46 9 -3 2 -28 7 -55 11 -27 3 -52 8 -55 10 -3 2 -21 6 -40 9 -19 3 -90
16 -159 30 -69 13 -141 27 -160 30 -19 3 -78 14 -130 25 -52 10 -111 22 -130
25 -19 3 -66 12 -105 20 -38 8 -86 17 -105 20 -19 3 -80 15 -135 25 -177 34
-161 35 -263 -15 -72 -35 -92 -49 -92 -66 0 -33 58 -81 166 -137 250 -130 242
-125 248 -158 6 -27 13 -33 60 -48 46 -14 55 -21 58 -43 4 -33 -5 -28 241
-134 54 -23 95 -45 90 -48 -4 -4 -24 -19 -43 -33 -19 -14 -174 -127 -344 -252
l-309 -228 -76 7 c-41 3 -78 8 -82 10 -3 3 -57 -25 -120 -61 -63 -36 -138 -80
-167 -96 -29 -17 -52 -32 -50 -33 3 -4 628 -13 1123 -17 l260 -3 0 170 1 170
93 125 c52 69 95 126 96 128 1 1 67 -14 146 -33 79 -20 155 -38 169 -41 14 -2
32 -7 40 -10 8 -3 26 -8 40 -10 14 -3 36 -8 50 -13 14 -5 52 -15 85 -22 33 -7
63 -15 68 -19 4 -3 -64 -55 -150 -114 -87 -59 -219 -149 -294 -200 -74 -51
-144 -96 -154 -99 -10 -4 -15 -10 -12 -13 5 -5 5408 -6 5413 -1 2 1 -54 48
-124 104 -228 183 -377 323 -497 464 -57 69 -239 344 -299 454 -10 18 -143
241 -449 755 -64 107 -137 218 -163 245 -26 28 -86 92 -133 144 -47 52 -97
106 -111 121 -93 100 -219 236 -239 259 -195 214 -241 257 -351 331 -97 65
-146 109 -310 277 -171 177 -204 205 -267 237 -78 39 -62 21 -262 295 -146
199 -142 196 -204 211 -50 12 -57 16 -63 44 -22 104 -90 254 -160 352 -116
164 -306 278 -499 300 -27 3 -60 7 -71 9 -12 2 -31 -2 -42 -8z"/>
</g>
</svg>
