<svg xmlns="http://www.w3.org/2000/svg" xmlns:xlink="http://www.w3.org/1999/xlink" viewBox="0 0 366.11 271.02">
  <defs>
    <linearGradient id="a" x1="103.79" y1="8.91" x2="201.41" y2="205.47" gradientTransform="matrix(1, 0.03, -0.03, 1, -4.72, 2.36)" gradientUnits="userSpaceOnUse">
      <stop offset="0.01" stop-color="#c19d3a"/>
      <stop offset="1" stop-color="#786124"/>
    </linearGradient>
    <linearGradient id="b" x1="44.31" y1="236.36" x2="54.67" y2="267.4" xlink:href="#a"/>
    <linearGradient id="c" x1="162.62" y1="-5.22" x2="205.42" y2="122.98" xlink:href="#a"/>
    <linearGradient id="d" x1="166.43" y1="89.41" x2="224.05" y2="176.82" xlink:href="#a"/>
    <linearGradient id="e" x1="179.91" y1="80.85" x2="275.73" y2="246.39" xlink:href="#a"/>
    <linearGradient id="f" x1="162.62" y1="265.01" x2="226.06" y2="278.6" gradientTransform="matrix(1, -0.03, 0.03, 1, 7.04, -13.2)" xlink:href="#a"/>
    <linearGradient id="g" x1="339.88" y1="311.72" x2="206.79" y2="275.48" gradientTransform="matrix(1, -0.03, 0.03, 1, 7.04, -13.2)" xlink:href="#a"/>
  </defs>
  <polygon points="0 269.85 73.2 270.98 72.86 251.17 83.1 236.15 115 245.13 83.98 268.58 81.25 270.31 366.11 271.02 360.19 259.06 327.97 229.45 299.73 199.19 274.73 170.19 241.73 117.19 232.73 110.19 215.73 85.19 204.73 78.19 195.73 65.19 185.73 49.19 182.73 48.19 159.73 5.19 145.92 0.2 134.93 9.8 134.63 20.59 131.88 23.22 136.47 115.18 133.64 120.5 137.31 213.34 28.13 189.6 18.16 194.72 18.09 197.42 21.56 201.12 39.13 211.51 39.92 215.14 45.23 217.09 46.02 220.71 63.64 229.3 26.18 259.77 17.28 258.63 0 269.85" style="fill:#775e25"/>
  <polygon points="145.92 0.2 165.72 219.53 137.31 213.34 133.64 120.5 136.47 115.18 131.88 23.22 134.63 20.59 134.93 9.8 145.92 0.2" style="fill:url(#a)"/>
  <polygon points="63.64 229.3 72.51 231.35 46.72 270.57 0 269.85 17.28 258.63 26.18 259.77 63.64 229.3" style="fill:url(#b)"/>
  <polygon points="185.73 49.19 182.73 48.19 172.73 100.19 157.31 126.41 161.65 174.44 194.46 149.41 212.73 126.19 241.73 117.19 232.73 110.19 215.73 85.19 204.73 78.19 195.73 65.19 185.73 49.19" style="fill:url(#c)"/>
  <polygon points="182.73 48.19 172.73 100.19 157.31 126.41 145.92 0 159.73 5.19 182.73 48.19" style="fill:#775e25"/>
  <polygon points="161.65 174.44 194.46 149.41 212.73 126.19 241.73 117.19 274.73 170.19 246.73 182.19 199.54 191.56 165.72 219.53 163.61 198.77 161.65 174.44" style="fill:url(#d)"/>
  <polygon points="165.72 219.53 165.72 219.53 199.54 191.56 246.73 182.19 274.73 170.19 299.73 199.19 327.73 229.19 271.73 227.19 231.73 219.19 165.72 219.53" style="fill:url(#e)"/>
  <polygon points="171.04 265.24 185.34 237.55 208.32 224.43 230.4 230.98 215.53 253.33 214.71 263.79 177.08 270.61 161.73 270.49 171.04 265.24" style="fill:url(#f)"/>
  <polygon points="214.7 263.74 215.53 253.28 230.39 230.93 241.59 242.75 248.49 262.62 253.73 270.69 177.47 270.59 214.7 263.74" style="fill:url(#g)"/>
</svg>
