<svg xmlns="http://www.w3.org/2000/svg" xmlns:xlink="http://www.w3.org/1999/xlink" viewBox="0 0 357.97149 265"><defs><linearGradient id="a" x1="114.21187" y1="18.32609" x2="209.65789" y2="210.52009" gradientTransform="matrix(0.99962, 0.02779, -0.02779, 0.99962, -17.06926, -7.65247)" gradientUnits="userSpaceOnUse"><stop offset="0.00838" stop-color="#c19d3a"/><stop offset="1" stop-color="#786124"/></linearGradient><linearGradient id="b" x1="56.04932" y1="240.72322" x2="66.18103" y2="271.07122" xlink:href="#a"/><linearGradient id="c" x1="171.72848" y1="4.51124" x2="213.57615" y2="129.85965" xlink:href="#a"/><linearGradient id="d" x1="175.45496" y1="97.03657" x2="231.79138" y2="182.506" xlink:href="#a"/><linearGradient id="e" x1="188.64118" y1="88.6709" x2="282.32938" y2="250.52971" xlink:href="#a"/><linearGradient id="f" x1="144.09984" y1="247.38198" x2="206.13036" y2="260.66468" gradientTransform="matrix(0.99945, -0.03326, 0.03326, 0.99945, 22.17318, -1.66222)" xlink:href="#a"/><linearGradient id="g" x1="317.4129" y1="293.04703" x2="187.28313" y2="257.61105" gradientTransform="matrix(0.99945, -0.03326, 0.03326, 0.99945, 22.17318, -1.66222)" xlink:href="#a"/></defs><polygon points="0 263.851 71.57 264.961 71.235 245.584 81.249 230.897 112.439 239.687 82.113 262.613 79.447 264.299 357.971 265 352.185 253.297 320.682 224.348 293.072 194.76 268.628 166.405 236.361 114.583 227.561 107.738 210.939 83.294 200.184 76.45 191.384 63.739 181.606 48.094 178.673 47.117 156.184 5.072 142.673 0.195 131.934 9.581 131.64 20.136 128.949 22.703 133.435 112.622 130.671 117.827 134.259 208.601 27.504 185.386 17.759 190.397 17.686 193.036 21.078 196.651 38.259 206.813 39.034 210.356 44.22 212.26 44.995 215.803 62.225 224.205 25.596 253.999 16.896 252.877 0 263.851" style="fill:#775e25"/><polygon points="142.673 0.195 162.033 214.655 134.259 208.601 130.671 117.827 133.435 112.622 128.949 22.703 131.64 20.136 131.934 9.581 142.673 0.195" style="fill:url(#a)"/><polygon points="62.225 224.205 70.901 226.207 45.681 264.559 0 263.851 16.896 252.877 25.596 253.999 62.225 224.205" style="fill:url(#b)"/><polygon points="181.606 48.094 178.673 47.117 168.895 97.961 153.813 123.597 158.052 170.559 190.134 146.086 208.006 123.383 236.361 114.583 227.561 107.738 210.939 83.294 200.184 76.45 191.384 63.739 181.606 48.094" style="fill:url(#c)"/><polygon points="178.673 47.117 168.895 97.961 153.813 123.597 142.678 0 156.184 5.072 178.673 47.117" style="fill:#775e25"/><polygon points="158.052 170.559 190.134 146.086 208.006 123.383 236.361 114.583 268.628 166.405 241.25 178.138 195.101 187.306 162.033 214.655 159.978 194.351 158.052 170.559" style="fill:url(#d)"/><polygon points="162.033 214.655 162.033 214.655 195.101 187.306 241.25 178.138 268.628 166.405 293.072 194.76 320.45 224.094 265.695 222.138 226.584 214.316 162.033 214.655" style="fill:url(#e)"/><polygon points="167.241 259.347 181.223 232.269 203.692 219.437 225.275 225.842 210.738 247.696 209.933 257.926 173.14 264.593 158.139 264.476 167.241 259.347" style="fill:url(#f)"/><polygon points="209.932 257.882 210.736 247.652 225.273 225.799 236.215 237.359 242.967 256.783 248.095 264.671 173.521 264.58 209.932 257.882" style="fill:url(#g)"/></svg>
