<svg xmlns="http://www.w3.org/2000/svg" xmlns:xlink="http://www.w3.org/1999/xlink" viewBox="0 0 358.20495 265.12304"><defs><linearGradient id="a" x1="-25.38495" y1="13357.91082" x2="391.51952" y2="13357.91082" gradientTransform="translate(5.67957 -2037.99746) scale(0.20427 0.1711)" gradientUnits="userSpaceOnUse"><stop offset="0" stop-color="#fff"/><stop offset="0.32989" stop-color="#fdfdfd"/><stop offset="0.46654" stop-color="#f6f6f6"/><stop offset="0.56743" stop-color="#eaeaea"/><stop offset="0.65082" stop-color="#d8d8d8"/><stop offset="0.72332" stop-color="#c1c1c1"/><stop offset="0.78833" stop-color="#a5a5a5"/><stop offset="0.84772" stop-color="#838383"/><stop offset="0.90275" stop-color="#5c5c5c"/><stop offset="0.95213" stop-color="#313131"/><stop offset="0.99847" stop-color="#020202"/><stop offset="1"/></linearGradient><linearGradient id="b" x1="-4406.69067" y1="-356.31566" x2="-4227.5979" y2="-356.31566" gradientTransform="translate(4509.18872 480.3007)" gradientUnits="userSpaceOnUse"><stop offset="0" stop-color="#fff"/><stop offset="0.37264" stop-color="#fdfdfd"/><stop offset="0.50689" stop-color="#f6f6f6"/><stop offset="0.60258" stop-color="#ebebeb"/><stop offset="0.67999" stop-color="#dadada"/><stop offset="0.74626" stop-color="#c4c4c4"/><stop offset="0.80498" stop-color="#a8a8a8"/><stop offset="0.8581" stop-color="#888"/><stop offset="0.90691" stop-color="#626262"/><stop offset="0.95232" stop-color="#373737"/><stop offset="0.99262" stop-color="#090909"/><stop offset="1"/></linearGradient><linearGradient id="c" x1="160.72767" y1="135.2395" x2="160.72767" y2="-21.34433" gradientTransform="matrix(1, 0, 0, 1, 0, 0)" xlink:href="#b"/><linearGradient id="d" x1="-4417.66465" y1="-352.24238" x2="-4236.9438" y2="-352.24238" gradientTransform="translate(4522.77393 508.52284)" gradientUnits="userSpaceOnUse"><stop offset="0" stop-color="#fff"/><stop offset="0.29247" stop-color="#fdfdfd"/><stop offset="0.43005" stop-color="#f5f5f5"/><stop offset="0.53526" stop-color="#e8e8e8"/><stop offset="0.62411" stop-color="#d6d6d6"/><stop offset="0.70258" stop-color="#bebebe"/><stop offset="0.7737" stop-color="#a1a1a1"/><stop offset="0.83931" stop-color="#7e7e7e"/><stop offset="0.90067" stop-color="#555"/><stop offset="0.9563" stop-color="#292929"/><stop offset="1"/></linearGradient><linearGradient id="e" x1="-199.26631" y1="-146.78094" x2="-500.3553" y2="-447.86992" gradientTransform="translate(882.12653 566.95343) scale(1.6086 1.05287)" gradientUnits="userSpaceOnUse"><stop offset="0" stop-color="#fff"/><stop offset="0.42737" stop-color="#fefefe"/><stop offset="0.56013" stop-color="#fcfcfc"/><stop offset="0.63838" stop-color="#f3f3f3"/><stop offset="0.70247" stop-color="#e5e5e5"/><stop offset="0.75893" stop-color="#d1d1d1"/><stop offset="0.81039" stop-color="#b7b7b7"/><stop offset="0.85819" stop-color="#979797"/><stop offset="0.90318" stop-color="#717171"/><stop offset="0.94594" stop-color="#444"/><stop offset="0.98549" stop-color="#141414"/><stop offset="1"/></linearGradient><linearGradient id="f" x1="-4812.6217" y1="-1439.37356" x2="-4716.7297" y2="-1422.15383" gradientTransform="translate(4490.41529 1679.75591) scale(0.89847 1)" gradientUnits="userSpaceOnUse"><stop offset="0" stop-color="#fff"/><stop offset="0.11413" stop-color="#fbfbfb"/><stop offset="0.23838" stop-color="#ededed"/><stop offset="0.36743" stop-color="#d8d8d8"/><stop offset="0.49974" stop-color="#b9b9b9"/><stop offset="0.63469" stop-color="#929292"/><stop offset="0.77174" stop-color="#626262"/><stop offset="0.90787" stop-color="#2a2a2a"/><stop offset="1"/></linearGradient><linearGradient id="g" x1="-4327.75578" y1="-370.80386" x2="-4251.42116" y2="-370.80386" gradientTransform="translate(4615.98386 623.99398) scale(1.02806 1)" gradientUnits="userSpaceOnUse"><stop offset="0" stop-color="#fff"/><stop offset="0.23806" stop-color="#fdfdfd"/><stop offset="0.37482" stop-color="#f4f4f4"/><stop offset="0.48598" stop-color="#e6e6e6"/><stop offset="0.58333" stop-color="#d2d2d2"/><stop offset="0.6717" stop-color="#b9b9b9"/><stop offset="0.75355" stop-color="#999"/><stop offset="0.83043" stop-color="#737373"/><stop offset="0.90331" stop-color="#484848"/><stop offset="0.97061" stop-color="#171717"/><stop offset="1"/></linearGradient><linearGradient id="h" x1="365.18466" y1="230.2915" x2="-13.06953" y2="230.2915" gradientUnits="userSpaceOnUse"><stop offset="0" stop-color="#b3b3b3"/><stop offset="0.00674" stop-color="#b7b7b7"/><stop offset="0.05017" stop-color="#cdcdcd"/><stop offset="0.10104" stop-color="#dedede"/><stop offset="0.16439" stop-color="#e9e9e9"/><stop offset="0.25325" stop-color="#f0f0f0"/><stop offset="0.5" stop-color="#f2f2f2"/><stop offset="0.70335" stop-color="#f0f0f0"/><stop offset="0.77659" stop-color="#e9e9e9"/><stop offset="0.8288" stop-color="#dedede"/><stop offset="0.87103" stop-color="#cdcdcd"/><stop offset="0.90721" stop-color="#b7b7b7"/><stop offset="0.93923" stop-color="#9b9b9b"/><stop offset="0.96819" stop-color="#7b7b7b"/><stop offset="0.99396" stop-color="#575757"/><stop offset="1" stop-color="#4d4d4d"/></linearGradient><linearGradient id="i" x1="141.15469" y1="227.23251" x2="141.15469" y2="-34.06677" gradientTransform="matrix(1, 0, 0, 1, 0, 0)" xlink:href="#b"/><mask id="j" x="-5.40849" y="197.1712" width="96.96795" height="100.63796" maskUnits="userSpaceOnUse"><rect x="0.49408" y="219.94579" width="85.16283" height="55.08878" transform="translate(-174.09172 121.21551) rotate(-49.95021)" style="fill:url(#a)"/></mask><mask id="k" x="75.72506" y="6.69745" width="232.63874" height="234.57518" maskUnits="userSpaceOnUse"><rect x="102.49805" y="48.13974" width="179.09276" height="151.69059" transform="translate(228.9431 349.57724) rotate(-132.13578)" style="fill:url(#b)"/></mask><mask id="l" x="132.83617" y="-21.34433" width="55.78299" height="156.58384" maskUnits="userSpaceOnUse"><rect x="132.83617" y="-21.34433" width="55.78299" height="156.58384" style="fill:url(#c)"/></mask><mask id="m" x="83.44997" y="43.10697" width="224.03947" height="226.34697" maskUnits="userSpaceOnUse"><rect x="105.10928" y="87.28905" width="180.72084" height="137.98281" transform="translate(213.66467 405.882) rotate(-132.81203)" style="fill:url(#d)"/></mask><mask id="n" x="17.91325" y="73.51235" width="324.26736" height="178.34712" maskUnits="userSpaceOnUse"><rect x="26.55697" y="107.04498" width="306.97991" height="111.28187" transform="translate(41.83817 -36.7682) rotate(13.18037)" style="fill:url(#e)"/></mask><mask id="o" x="144.54967" y="198.55538" width="92.00777" height="93.30982" maskUnits="userSpaceOnUse"><rect x="154.94226" y="208.51096" width="71.22258" height="73.39867" transform="translate(285.90333 540.75583) rotate(-160.03002)" style="fill:url(#f)"/></mask><mask id="p" x="152.66349" y="199.84001" width="106.70021" height="106.70021" maskUnits="userSpaceOnUse"><rect x="166.77516" y="216.9801" width="78.47685" height="72.42002" transform="translate(172.65475 577.89616) rotate(-135)" style="fill:url(#g)"/></mask><mask id="q" x="-13.06953" y="173.52986" width="378.25419" height="113.52328" maskUnits="userSpaceOnUse"><rect x="-13.06953" y="173.52986" width="378.25419" height="113.52328" style="fill:url(#h)"/></mask><mask id="r" x="116.19914" y="-34.06677" width="49.9111" height="261.29928" maskUnits="userSpaceOnUse"><rect x="116.19914" y="-34.06677" width="49.9111" height="261.29928" style="fill:url(#i)"/></mask></defs><g style="mask:url(#j)"><polygon points="62.28 224.031 71.544 226.235 46.321 264.421 0 263.712 16.911 252.728 25.619 253.851 62.28 224.031"/></g><g style="mask:url(#k)"><polygon points="181.769 48.14 178.833 47.161 169.046 98.051 153.897 123.71 158.236 171.414 190.521 146.625 208.417 123.917 236.698 114.888 227.765 107.837 211.128 83.371 200.363 76.521 191.555 63.798 181.769 48.14"/></g><g style="mask:url(#l)"><polygon points="179.068 47.24 169.583 98.292 153.967 124.696 142.806 0.002 156.324 5.079 179.068 47.24"/></g><g style="mask:url(#m)"><polygon points="158.193 170.714 190.305 146.219 208.192 123.496 236.573 114.688 269.089 166.991 241.611 178.944 195.5 188.167 162.178 214.85 160.121 194.527 158.193 170.714"/></g><g style="mask:url(#n)"><polygon points="162.028 215.125 161.833 214.681 195.26 187.637 241.45 178.461 268.853 166.717 293.319 195.098 320.796 224.537 265.917 222.5 226.694 215.042 162.028 215.125"/></g><g style="mask:url(#o)"><polygon points="167.494 259.617 181.488 232.516 203.977 219.672 225.736 226.306 211.24 248.01 210.472 258.514 175.051 264.824 158.384 264.751 167.494 259.617"/></g><g style="mask:url(#p)"><polygon points="210.12 258.116 210.925 247.876 225.475 226.003 236.427 237.574 243.185 257.015 248.317 264.91 173.676 264.819 210.12 258.116"/></g><g style="mask:url(#q)"><polyline points="358.205 265.123 352.413 253.729 320.721 224.457 320.665 224.397 320.405 224.165 265.845 222.162 226.699 214.433 162.091 214.773 134.292 208.813 27.441 185.677 17.688 190.693 17.615 193.334 21.01 196.953 38.207 207.123 38.982 210.669 44.173 212.576 44.948 216.122 61.903 224.39 62.193 224.154 70.877 226.271 81.117 231.279 81.234 231.229 112.452 240.027 82.1 262.973 79.431 264.661 158.281 264.715 158.635 264.718 167.547 259.836 181.498 232.802 203.906 220.104 225.204 226.41 235.958 237.875 242.708 257.187 247.771 264.91"/></g><g style="mask:url(#r)"><polygon points="162.165 215.028 134.399 209.297 130.788 117.935 133.554 112.725 129.065 22.726 131.758 20.157 132.052 9.592 142.809 0 143.122 0.129 163 215.028 162.165 215.028"/></g><polyline points="45.721 264.421 70.964 226.035 81.204 231.106 71.181 245.806 72 264.6"/></svg>
