<svg xmlns="http://www.w3.org/2000/svg" xmlns:xlink="http://www.w3.org/1999/xlink" viewBox="0 0 479.78159 152.64879"><defs><linearGradient id="a" x1="73.34188" y1="29.79517" x2="128.32195" y2="140.50528" gradientTransform="matrix(0.99962, 0.02779, -0.02779, 0.99962, -16.84697, -23.84935)" gradientUnits="userSpaceOnUse"><stop offset="0.00838" stop-color="#c19d3a"/><stop offset="1" stop-color="#786124"/></linearGradient><linearGradient id="b" x1="39.83832" y1="157.90328" x2="45.67452" y2="175.38474" xlink:href="#a"/><linearGradient id="c" x1="106.47335" y1="21.83735" x2="130.57899" y2="94.04219" xlink:href="#a"/><linearGradient id="d" x1="108.61992" y1="75.13501" x2="141.07157" y2="124.36824" xlink:href="#a"/><linearGradient id="e" x1="116.21563" y1="70.31611" x2="170.18313" y2="163.55215" xlink:href="#a"/><linearGradient id="f" x1="73.9098" y1="123.5079" x2="109.64143" y2="131.15918" gradientTransform="matrix(0.99945, -0.03326, 0.03326, 0.99945, 22.49562, 17.72178)" xlink:href="#a"/><linearGradient id="g" x1="173.74386" y1="149.81248" x2="98.7848" y2="129.40018" gradientTransform="matrix(0.99945, -0.03326, 0.03326, 0.99945, 22.49562, 17.72178)" xlink:href="#a"/></defs><path d="M249.7606,57.45289h15.96578v43.78594h26.93278v12.66038H249.7606Z" style="fill:#967a2d"/><path d="M311.13908,57.45289h15.96579v56.44632H311.13908Z" style="fill:#967a2d"/><path d="M361.59735,111.25821a28.64825,28.64825,0,0,1,0-50.74659,35.77038,35.77038,0,0,1,31.93734,0,28.649,28.649,0,0,1,0,50.74659,35.78127,35.78127,0,0,1-31.93734,0Zm23.653-11.36615a14.40082,14.40082,0,0,0,5.44281-5.64335,18.48328,18.48328,0,0,0,0-16.72887,14.418,14.418,0,0,0-5.44281-5.64335,15.7602,15.7602,0,0,0-15.36864,0,14.40476,14.40476,0,0,0-5.44281,5.64335,18.48328,18.48328,0,0,0,0,16.72887,14.38767,14.38767,0,0,0,5.44281,5.64335,15.7602,15.7602,0,0,0,15.36864,0Z" style="fill:#967a2d"/><path d="M479.78159,57.86935v56.02986H466.73423L442.00164,84.04353v29.85568H426.47346V57.86935h13.04608L464.25341,87.725V57.86935Z" style="fill:#967a2d"/><polygon points="0 151.987 41.227 152.626 41.034 141.464 46.802 133.004 64.768 138.068 47.3 151.274 45.764 152.245 206.203 152.649 202.87 145.907 184.723 129.232 168.819 112.188 154.739 95.855 136.152 66.004 131.083 62.061 121.508 47.98 115.312 44.038 110.243 36.716 104.611 27.704 102.921 27.141 89.967 2.922 82.184 0.113 75.998 5.519 75.829 11.599 74.279 13.077 76.863 64.874 75.271 67.872 77.338 120.161 15.843 106.788 10.23 109.675 10.188 111.195 12.142 113.278 22.039 119.131 22.485 121.172 25.472 122.269 25.918 124.31 35.844 129.15 14.744 146.312 9.732 145.665 0 151.987" style="fill:#775e25"/><polygon points="82.184 0.113 93.336 123.649 77.338 120.161 75.271 67.872 76.863 64.874 74.279 13.078 75.829 11.599 75.998 5.519 82.184 0.113" style="fill:url(#a)"/><polygon points="35.844 129.15 40.841 130.303 26.314 152.395 0 151.987 9.732 145.665 14.744 146.312 35.844 129.15" style="fill:url(#b)"/><polygon points="104.611 27.704 102.921 27.141 97.289 56.429 88.601 71.196 91.043 98.248 109.524 84.15 119.818 71.073 136.152 66.004 131.083 62.061 121.508 47.98 115.312 44.038 110.243 36.716 104.611 27.704" style="fill:url(#c)"/><polygon points="102.921 27.141 97.289 56.429 88.601 71.196 82.187 0 89.967 2.922 102.921 27.141" style="fill:#775e25"/><polygon points="91.043 98.248 109.524 84.15 119.818 71.073 136.152 66.004 154.739 95.855 138.968 102.613 112.384 107.895 93.336 123.649 92.152 111.952 91.043 98.248" style="fill:url(#d)"/><polygon points="93.336 123.649 93.336 123.649 112.384 107.895 138.968 102.613 154.739 95.855 168.819 112.188 184.59 129.085 153.049 127.959 130.52 123.453 93.336 123.649" style="fill:url(#e)"/><polygon points="96.336 149.392 104.39 133.795 117.333 126.403 129.766 130.093 121.392 142.681 120.929 148.574 99.734 152.414 91.094 152.347 96.336 149.392" style="fill:url(#f)"/><polygon points="120.928 148.549 121.391 142.656 129.765 130.068 136.068 136.726 139.957 147.915 142.911 152.459 99.954 152.407 120.928 148.549" style="fill:url(#g)"/></svg>
