<svg xmlns="http://www.w3.org/2000/svg" xmlns:xlink="http://www.w3.org/1999/xlink" viewBox="0 0 358.29195 265.31973"><defs><linearGradient id="a" x1="170.87759" y1="10683.12296" x2="587.78206" y2="10683.12296" gradientTransform="translate(-34.41181 -1580.35145) scale(0.20427 0.1711)" gradientUnits="userSpaceOnUse"><stop offset="0" stop-color="#fff"/><stop offset="0.32989" stop-color="#fdfdfd"/><stop offset="0.46654" stop-color="#f6f6f6"/><stop offset="0.56743" stop-color="#eaeaea"/><stop offset="0.65082" stop-color="#d8d8d8"/><stop offset="0.72332" stop-color="#c1c1c1"/><stop offset="0.78833" stop-color="#a5a5a5"/><stop offset="0.84772" stop-color="#838383"/><stop offset="0.90275" stop-color="#5c5c5c"/><stop offset="0.95213" stop-color="#313131"/><stop offset="0.99847" stop-color="#020202"/><stop offset="1"/></linearGradient><linearGradient id="b" x1="-3492.28103" y1="-178.13951" x2="-3313.18827" y2="-178.13951" gradientTransform="translate(3594.77908 302.12455)" gradientUnits="userSpaceOnUse"><stop offset="0" stop-color="#fff"/><stop offset="0.37264" stop-color="#fdfdfd"/><stop offset="0.50689" stop-color="#f6f6f6"/><stop offset="0.60258" stop-color="#ebebeb"/><stop offset="0.67999" stop-color="#dadada"/><stop offset="0.74626" stop-color="#c4c4c4"/><stop offset="0.80498" stop-color="#a8a8a8"/><stop offset="0.8581" stop-color="#888"/><stop offset="0.90691" stop-color="#626262"/><stop offset="0.95232" stop-color="#373737"/><stop offset="0.99262" stop-color="#090909"/><stop offset="1"/></linearGradient><linearGradient id="c" x1="160.72767" y1="135.2395" x2="160.72767" y2="-21.34433" gradientTransform="matrix(1, 0, 0, 1, 0, 0)" xlink:href="#b"/><linearGradient id="d" x1="-3501.9462" y1="-168.19544" x2="-3321.22535" y2="-168.19544" gradientTransform="translate(3607.05548 324.4759)" gradientUnits="userSpaceOnUse"><stop offset="0" stop-color="#fff"/><stop offset="0.29247" stop-color="#fdfdfd"/><stop offset="0.43005" stop-color="#f5f5f5"/><stop offset="0.53526" stop-color="#e8e8e8"/><stop offset="0.62411" stop-color="#d6d6d6"/><stop offset="0.70258" stop-color="#bebebe"/><stop offset="0.7737" stop-color="#a1a1a1"/><stop offset="0.83931" stop-color="#7e7e7e"/><stop offset="0.90067" stop-color="#555"/><stop offset="0.9563" stop-color="#292929"/><stop offset="1"/></linearGradient><linearGradient id="e" x1="-75.80958" y1="-34.51175" x2="-376.89857" y2="-335.60074" gradientTransform="translate(683.54965 448.58812) scale(1.6086 1.05287)" gradientUnits="userSpaceOnUse"><stop offset="0" stop-color="#fff"/><stop offset="0.42737" stop-color="#fefefe"/><stop offset="0.56013" stop-color="#fcfcfc"/><stop offset="0.63838" stop-color="#f3f3f3"/><stop offset="0.70247" stop-color="#e5e5e5"/><stop offset="0.75893" stop-color="#d1d1d1"/><stop offset="0.81039" stop-color="#b7b7b7"/><stop offset="0.85819" stop-color="#979797"/><stop offset="0.90318" stop-color="#717171"/><stop offset="0.94594" stop-color="#444"/><stop offset="0.98549" stop-color="#141414"/><stop offset="1"/></linearGradient><linearGradient id="f" x1="-3846.92783" y1="-1015.577" x2="-3751.03582" y2="-998.35727" gradientTransform="translate(3622.6609 1255.92317) scale(0.89847 1)" gradientUnits="userSpaceOnUse"><stop offset="0" stop-color="#fff"/><stop offset="0.11413" stop-color="#fbfbfb"/><stop offset="0.23838" stop-color="#ededed"/><stop offset="0.36743" stop-color="#d8d8d8"/><stop offset="0.49974" stop-color="#b9b9b9"/><stop offset="0.63469" stop-color="#929292"/><stop offset="0.77174" stop-color="#626262"/><stop offset="0.90787" stop-color="#2a2a2a"/><stop offset="1"/></linearGradient><linearGradient id="g" x1="-3421.97724" y1="-167.66362" x2="-3345.64261" y2="-167.66362" gradientTransform="translate(3684.7858 420.85373) scale(1.02806 1)" gradientUnits="userSpaceOnUse"><stop offset="0" stop-color="#fff"/><stop offset="0.23806" stop-color="#fdfdfd"/><stop offset="0.37482" stop-color="#f4f4f4"/><stop offset="0.48598" stop-color="#e6e6e6"/><stop offset="0.58333" stop-color="#d2d2d2"/><stop offset="0.6717" stop-color="#b9b9b9"/><stop offset="0.75355" stop-color="#999"/><stop offset="0.83043" stop-color="#737373"/><stop offset="0.90331" stop-color="#484848"/><stop offset="0.97061" stop-color="#171717"/><stop offset="1"/></linearGradient><linearGradient id="h" x1="365.27167" y1="230.16846" x2="-12.98253" y2="230.16846" gradientUnits="userSpaceOnUse"><stop offset="0" stop-color="#b3b3b3"/><stop offset="0.00674" stop-color="#b7b7b7"/><stop offset="0.05017" stop-color="#cdcdcd"/><stop offset="0.10104" stop-color="#dedede"/><stop offset="0.16439" stop-color="#e9e9e9"/><stop offset="0.25325" stop-color="#f0f0f0"/><stop offset="0.5" stop-color="#f2f2f2"/><stop offset="0.70335" stop-color="#f0f0f0"/><stop offset="0.77659" stop-color="#e9e9e9"/><stop offset="0.8288" stop-color="#dedede"/><stop offset="0.87103" stop-color="#cdcdcd"/><stop offset="0.90721" stop-color="#b7b7b7"/><stop offset="0.93923" stop-color="#9b9b9b"/><stop offset="0.96819" stop-color="#7b7b7b"/><stop offset="0.99396" stop-color="#575757"/><stop offset="1" stop-color="#4d4d4d"/></linearGradient><linearGradient id="i" x1="141.15469" y1="227.23251" x2="141.15469" y2="-34.06677" gradientTransform="matrix(1, 0, 0, 1, 0, 0)" xlink:href="#b"/><mask id="j" x="-5.40849" y="197.1712" width="96.96795" height="100.63796" maskUnits="userSpaceOnUse"><rect x="0.49408" y="219.94579" width="85.16283" height="55.08878" transform="translate(-174.09172 121.21551) rotate(-49.95021)" style="fill:url(#a)"/></mask><mask id="k" x="75.72506" y="6.69745" width="232.63874" height="234.57518" maskUnits="userSpaceOnUse"><rect x="102.49805" y="48.13974" width="179.09276" height="151.69059" transform="translate(228.9431 349.57725) rotate(-132.13578)" style="fill:url(#b)"/></mask><mask id="l" x="132.83617" y="-21.34433" width="55.78299" height="156.58384" maskUnits="userSpaceOnUse"><rect x="132.83617" y="-21.34433" width="55.78299" height="156.58384" style="fill:url(#c)"/></mask><mask id="m" x="83.44997" y="43.10697" width="224.03947" height="226.34697" maskUnits="userSpaceOnUse"><rect x="105.10928" y="87.28905" width="180.72084" height="137.98281" transform="translate(213.66467 405.882) rotate(-132.81203)" style="fill:url(#d)"/></mask><mask id="n" x="17.92902" y="73.35162" width="324.26736" height="178.34712" maskUnits="userSpaceOnUse"><rect x="26.57274" y="106.88424" width="306.97991" height="111.28187" transform="translate(41.80193 -36.77603) rotate(13.18037)" style="fill:url(#e)"/></mask><mask id="o" x="144.44656" y="198.5192" width="92.00777" height="93.30982" maskUnits="userSpaceOnUse"><rect x="154.83915" y="208.47478" width="71.22258" height="73.39867" transform="translate(285.71566 540.65044) rotate(-160.03002)" style="fill:url(#f)"/></mask><mask id="p" x="152.66349" y="199.84001" width="106.70021" height="106.70021" maskUnits="userSpaceOnUse"><rect x="166.77516" y="216.9801" width="78.47685" height="72.42002" transform="translate(172.65475 577.89617) rotate(-135)" style="fill:url(#g)"/></mask><mask id="q" x="-12.98253" y="173.40681" width="378.25419" height="113.52328" maskUnits="userSpaceOnUse"><rect x="-12.98253" y="173.40681" width="378.25419" height="113.52328" style="fill:url(#h)"/></mask><mask id="r" x="116.19914" y="-34.06677" width="49.9111" height="261.29928" maskUnits="userSpaceOnUse"><rect x="116.19914" y="-34.06677" width="49.9111" height="261.29928" style="fill:url(#i)"/></mask></defs><g style="mask:url(#j)"><polygon points="62.28 224.031 70.964 226.035 45.721 264.421 0 263.712 16.911 252.728 25.619 253.851 62.28 224.031" style="fill:#fff"/></g><g style="mask:url(#k)"><polygon points="181.769 48.14 178.833 47.161 169.046 98.051 153.897 123.71 158.193 170.714 190.305 146.219 208.192 123.496 236.573 114.688 227.765 107.837 211.128 83.371 200.363 76.521 191.555 63.798 181.769 48.14" style="fill:#fff"/></g><g style="mask:url(#l)"><polygon points="178.833 47.161 169.046 98.051 153.897 123.71 142.806 0.002 156.324 5.079 178.833 47.161" style="fill:#fff"/></g><g style="mask:url(#m)"><polygon points="158.193 170.714 190.305 146.219 208.192 123.496 236.573 114.688 268.868 166.556 241.466 178.3 195.275 187.476 162.178 214.85 160.121 194.527 158.193 170.714" style="fill:#fff"/></g><g style="mask:url(#n)"><polygon points="162.178 214.85 162.178 214.85 195.275 187.476 241.466 178.3 268.868 166.556 293.335 194.937 320.737 224.297 265.932 222.339 226.786 214.51 162.178 214.85" style="fill:#fff"/></g><g style="mask:url(#o)"><polygon points="167.391 259.581 181.385 232.479 203.874 219.636 225.476 226.047 210.926 247.92 210.121 258.159 173.295 264.832 158.281 264.715 167.391 259.581" style="fill:#fff"/></g><g style="mask:url(#p)"><polygon points="210.12 258.116 210.925 247.876 225.475 226.003 236.427 237.574 243.185 257.015 248.317 264.91 173.676 264.819 210.12 258.116" style="fill:#fff"/></g><g style="mask:url(#q)"><polyline points="248.317 265.043 358.292 265.32 352.5 253.606 320.737 224.377 320.737 224.297 265.932 222.339 226.786 214.51 162.178 214.85 134.379 208.79 27.528 185.554 17.775 190.57 17.702 193.211 21.097 196.83 38.294 207 39.069 210.546 44.26 212.453 45.035 215.999 61.99 224.267 62.28 224.031 70.964 226.035 81.204 231.106 81.321 231.106 112.539 239.904 82.187 262.85 79.518 264.538 158.281 264.736 158.281 264.715 167.391 259.581 181.385 232.479 203.874 219.636 225.475 226.003 236.427 237.574 243.185 257.015 248.317 264.91" style="fill:#fff"/></g><g style="mask:url(#r)"><path d="M162.17773,214.85014S142.63072-.01225,142.8086,0L132.05189,9.59173l-.29376,10.56532-2.69332,2.56849,4.48958,89.99953-2.76679,5.20982,3.59181,90.85565,27.79832,6.0596" style="fill:#fff"/></g><polyline points="45.721 264.421 70.964 226.035 81.204 231.106 71.181 245.806 71.516 265.2 45.604 264.421" style="fill:#fff"/></svg>
