<svg xmlns="http://www.w3.org/2000/svg" xmlns:xlink="http://www.w3.org/1999/xlink" viewBox="0 0 479.33333 152.05194"><defs><linearGradient id="a" x1="-284.98263" y1="7326.18802" x2="-46.05908" y2="7326.18802" gradientTransform="translate(58.49775 -1111.64885) scale(0.20427 0.1711)" gradientUnits="userSpaceOnUse"><stop offset="0" stop-color="#fff"/><stop offset="0.14252" stop-color="#fbfbfb"/><stop offset="0.27034" stop-color="#f1f1f1"/><stop offset="0.39257" stop-color="#dedede"/><stop offset="0.51142" stop-color="#c4c4c4"/><stop offset="0.6278" stop-color="#a3a3a3"/><stop offset="0.74229" stop-color="#7a7a7a"/><stop offset="0.8553" stop-color="#4a4a4a"/><stop offset="0.96446" stop-color="#131313"/><stop offset="1"/></linearGradient><linearGradient id="b" x1="-2313.73651" y1="-470.66876" x2="-2211.10034" y2="-470.66876" gradientTransform="translate(2372.47706 541.72328)" gradientUnits="userSpaceOnUse"><stop offset="0" stop-color="#fff"/><stop offset="0.37264" stop-color="#fdfdfd"/><stop offset="0.50689" stop-color="#f6f6f6"/><stop offset="0.60258" stop-color="#ebebeb"/><stop offset="0.67999" stop-color="#dadada"/><stop offset="0.74626" stop-color="#c4c4c4"/><stop offset="0.80498" stop-color="#a8a8a8"/><stop offset="0.8581" stop-color="#888"/><stop offset="0.90691" stop-color="#626262"/><stop offset="0.95232" stop-color="#373737"/><stop offset="0.99262" stop-color="#090909"/><stop offset="1"/></linearGradient><linearGradient id="c" x1="92.11133" y1="77.50433" x2="92.11133" y2="-12.23221" gradientTransform="matrix(1, 0, 0, 1, 0, 0)" xlink:href="#b"/><linearGradient id="d" x1="-2307.36988" y1="-445.81477" x2="-2203.80068" y2="-445.81477" gradientTransform="translate(2367.6069 535.37745)" gradientUnits="userSpaceOnUse"><stop offset="0" stop-color="#fff"/><stop offset="0.29247" stop-color="#fdfdfd"/><stop offset="0.43005" stop-color="#f5f5f5"/><stop offset="0.53526" stop-color="#e8e8e8"/><stop offset="0.62411" stop-color="#d6d6d6"/><stop offset="0.70258" stop-color="#bebebe"/><stop offset="0.7737" stop-color="#a1a1a1"/><stop offset="0.83931" stop-color="#7e7e7e"/><stop offset="0.90067" stop-color="#555"/><stop offset="0.9563" stop-color="#292929"/><stop offset="1"/></linearGradient><linearGradient id="e" x1="-17.53615" y1="-49.75996" x2="-190.08707" y2="-222.31088" gradientTransform="translate(350.057 288.64781) scale(1.6086 1.05287)" gradientUnits="userSpaceOnUse"><stop offset="0" stop-color="#fff"/><stop offset="0.42737" stop-color="#fefefe"/><stop offset="0.56013" stop-color="#fcfcfc"/><stop offset="0.63838" stop-color="#f3f3f3"/><stop offset="0.70247" stop-color="#e5e5e5"/><stop offset="0.75893" stop-color="#d1d1d1"/><stop offset="0.81039" stop-color="#b7b7b7"/><stop offset="0.85819" stop-color="#979797"/><stop offset="0.90318" stop-color="#717171"/><stop offset="0.94594" stop-color="#444"/><stop offset="0.98549" stop-color="#141414"/><stop offset="1"/></linearGradient><linearGradient id="f" x1="-2481.67123" y1="-950.70621" x2="-2426.71653" y2="-940.83777" gradientTransform="translate(2325.01984 1088.44606) scale(0.89847 1)" gradientUnits="userSpaceOnUse"><stop offset="0" stop-color="#fff"/><stop offset="0.11413" stop-color="#fbfbfb"/><stop offset="0.23838" stop-color="#ededed"/><stop offset="0.36743" stop-color="#d8d8d8"/><stop offset="0.49974" stop-color="#b9b9b9"/><stop offset="0.63469" stop-color="#929292"/><stop offset="0.77174" stop-color="#626262"/><stop offset="0.90787" stop-color="#2a2a2a"/><stop offset="1"/></linearGradient><linearGradient id="g" x1="-2220.22993" y1="-397.03594" x2="-2176.48336" y2="-397.03594" gradientTransform="translate(2378.11492 542.13652) scale(1.02806 1)" gradientUnits="userSpaceOnUse"><stop offset="0" stop-color="#fff"/><stop offset="0.23806" stop-color="#fdfdfd"/><stop offset="0.37482" stop-color="#f4f4f4"/><stop offset="0.48598" stop-color="#e6e6e6"/><stop offset="0.58333" stop-color="#d2d2d2"/><stop offset="0.6717" stop-color="#b9b9b9"/><stop offset="0.75355" stop-color="#999"/><stop offset="0.83043" stop-color="#737373"/><stop offset="0.90331" stop-color="#484848"/><stop offset="0.97061" stop-color="#171717"/><stop offset="1"/></linearGradient><linearGradient id="h" x1="216.90121" y1="131.90711" x2="-7.44015" y2="131.90711" gradientUnits="userSpaceOnUse"><stop offset="0" stop-color="#e6e6e6"/><stop offset="0.01255" stop-color="#e6e6e6"/><stop offset="0.5" stop-color="#e6e6e6"/><stop offset="0.737" stop-color="#e4e4e4"/><stop offset="0.82237" stop-color="#ddd"/><stop offset="0.88323" stop-color="#d2d2d2"/><stop offset="0.93244" stop-color="#c1c1c1"/><stop offset="0.97405" stop-color="#ababab"/><stop offset="1" stop-color="#999"/></linearGradient><linearGradient id="i" x1="80.89426" y1="130.22455" x2="80.89426" y2="-19.52331" gradientTransform="matrix(1, 0, 0, 1, 0, 0)" xlink:href="#b"/><mask id="j" x="-3.09955" y="112.99673" width="55.57131" height="57.67455" maskUnits="userSpaceOnUse"><rect x="0.28315" y="126.04861" width="48.80592" height="31.5708" transform="translate(-99.77012 69.46733) rotate(-49.95021)" style="fill:url(#a)"/></mask><mask id="k" x="43.39723" y="3.83824" width="133.3228" height="134.43256" maskUnits="userSpaceOnUse"><rect x="58.74055" y="27.58838" width="102.63617" height="86.93228" transform="translate(131.20487 200.33903) rotate(-132.13578)" style="fill:url(#b)"/></mask><mask id="l" x="76.12701" y="-12.23221" width="31.96864" height="89.73654" maskUnits="userSpaceOnUse"><rect x="76.12701" y="-12.23221" width="31.96864" height="89.73654" style="fill:url(#c)"/></mask><mask id="m" x="47.8243" y="24.70415" width="128.39465" height="129.71706" maskUnits="userSpaceOnUse"><rect x="60.23702" y="50.02443" width="103.56921" height="79.07649" transform="translate(122.44897 232.60669) rotate(-132.81203)" style="fill:url(#d)"/></mask><mask id="n" x="10.27493" y="42.03704" width="185.8342" height="102.20885" maskUnits="userSpaceOnUse"><rect x="15.22856" y="61.25423" width="175.92695" height="63.77446" transform="translate(23.95625 -21.07595) rotate(13.18037)" style="fill:url(#e)"/></mask><mask id="o" x="82.7808" y="113.76926" width="52.72868" height="53.47487" maskUnits="userSpaceOnUse"><rect x="88.73668" y="119.47469" width="40.81691" height="42.064" transform="translate(163.74063 309.84105) rotate(-160.03002)" style="fill:url(#f)"/></mask><mask id="p" x="87.48983" y="114.5262" width="61.14876" height="61.14876" maskUnits="userSpaceOnUse"><rect x="95.57708" y="124.349" width="44.97426" height="41.50315" transform="translate(98.94661 331.18619) rotate(-135)" style="fill:url(#g)"/></mask><mask id="q" x="-7.44015" y="99.37761" width="224.34136" height="65.05899" maskUnits="userSpaceOnUse"><rect x="-7.44015" y="99.37761" width="224.34136" height="65.05899" style="fill:url(#h)"/></mask><mask id="r" x="66.5925" y="-19.52331" width="28.60352" height="149.74786" maskUnits="userSpaceOnUse"><rect x="66.5925" y="-19.52331" width="28.60352" height="149.74786" style="fill:url(#i)"/></mask></defs><path d="M249.31234,56.95773h15.96578v43.78594H292.2109v12.66038H249.31234Z" style="fill:#fff"/><path d="M310.69082,56.95773h15.96579v56.44632H310.69082Z" style="fill:#fff"/><path d="M361.14909,110.76305a28.64823,28.64823,0,0,1,0-50.74658,35.7703,35.7703,0,0,1,31.93734,0,28.649,28.649,0,0,1,0,50.74658,35.78119,35.78119,0,0,1-31.93734,0Zm23.653-11.36615a14.4008,14.4008,0,0,0,5.4428-5.64335,18.48328,18.48328,0,0,0,0-16.72887,14.41806,14.41806,0,0,0-5.4428-5.64335,15.76029,15.76029,0,0,0-15.36865,0,14.40483,14.40483,0,0,0-5.44281,5.64335,18.48328,18.48328,0,0,0,0,16.72887,14.3876,14.3876,0,0,0,5.44281,5.64335,15.76022,15.76022,0,0,0,15.36865,0Z" style="fill:#fff"/><path d="M479.33333,57.37419v56.02986H466.286L441.55338,83.54837v29.85568H426.0252V57.37419h13.04608l24.73387,29.85568V57.37419Z" style="fill:#fff"/><g style="mask:url(#j)"><polygon points="35.692 128.39 40.669 129.538 26.202 151.537 0 151.131 9.691 144.836 14.682 145.479 35.692 128.39" style="fill:#fff"/></g><g style="mask:url(#k)"><polygon points="104.17 27.588 102.487 27.028 96.879 56.192 88.197 70.897 90.659 97.834 109.062 83.797 119.313 70.774 135.577 65.726 130.53 61.8 120.995 47.779 114.826 43.853 109.778 36.562 104.17 27.588" style="fill:#fff"/></g><g style="mask:url(#l)"><polygon points="102.487 27.028 96.879 56.192 88.197 70.897 81.841 0.001 89.587 2.911 102.487 27.028" style="fill:#fff"/></g><g style="mask:url(#m)"><polygon points="90.659 97.834 109.062 83.797 119.313 70.774 135.577 65.726 154.086 95.452 138.382 102.182 111.91 107.441 92.942 123.128 91.764 111.481 90.659 97.834" style="fill:#fff"/></g><g style="mask:url(#n)"><polygon points="92.942 123.128 92.942 123.128 111.91 107.441 138.382 102.182 154.086 95.452 168.107 111.716 183.811 128.542 152.403 127.42 129.969 122.933 92.942 123.128" style="fill:#fff"/></g><g style="mask:url(#o)"><polygon points="95.93 148.763 103.95 133.231 116.838 125.871 129.218 129.545 120.88 142.08 120.418 147.948 99.313 151.772 90.709 151.705 95.93 148.763" style="fill:#fff"/></g><g style="mask:url(#p)"><polygon points="120.417 147.923 120.879 142.055 129.217 129.52 135.494 136.151 139.367 147.293 142.308 151.817 99.532 151.765 120.417 147.923" style="fill:#fff"/></g><polygon points="40.601 129.538 46.537 132.444 40.793 140.869 40.985 151.983 26.135 151.537 40.601 129.538" style="fill:#fff"/><g style="mask:url(#q)"><polyline points="142.308 151.817 139.367 147.293 135.494 136.151 129.217 129.52 116.838 125.871 103.95 133.231 95.93 148.763 90.709 151.705 90.709 151.718 45.571 151.604 47.1 150.637 64.495 137.486 46.604 132.444 35.692 128.606 25.809 123.787 25.365 121.754 22.39 120.662 21.946 118.63 12.091 112.801 10.145 110.727 10.187 109.213 15.776 106.339 77.011 119.656 92.942 123.128 129.969 122.933 152.403 127.42 183.811 128.542 183.811 128.588 202.014 145.339 205.333 152.052 142.308 151.893" style="fill:#fff"/></g><g style="mask:url(#r)"><path d="M92.94234,123.12835S81.74016-.007,81.8421,0L75.67754,5.49692l-.16835,6.05487-1.54351,1.472,2.57293,51.57778L74.953,67.58724l2.05843,52.06841,15.93092,3.4727" style="fill:#fff"/></g></svg>
