<svg xmlns="http://www.w3.org/2000/svg" viewBox="0 0 1803.68 746.61"><defs><style>.a,.d{font-size:36px;}.a,.ar,.as,.aw,.y,.z{font-family:INGMe-Bold, ING Me;font-weight:700;}.b{letter-spacing:-0.01em;}.ar,.aw,.c,.y,.z{font-size:20px;}.c,.d,.n,.p,.u{font-family:INGMe, ING Me;}.c{font-weight:400;}.e{font-size:19px;}.f{letter-spacing:-0.01em;}.g{letter-spacing:0em;}.h{letter-spacing:-0.02em;}.i{letter-spacing:-0.06em;}.j{letter-spacing:-0.01em;}.k{letter-spacing:-0.07em;}.l{fill:none;stroke:#000;stroke-miterlimit:10;stroke-width:3px;}.aw,.m,.t,.z{opacity:0.4;}.n,.p,.u{font-size:26px;}.ar,.aw,.n,.s,.t{fill:#0071bc;}.o{letter-spacing:-0.01em;}.p,.r{fill:#22b573;}.q{letter-spacing:0em;}.u,.x{fill:#f7931e;}.v{letter-spacing:-0.03em;}.w{letter-spacing:0.02em;}.aa{letter-spacing:-0.02em;}.ab,.ak{letter-spacing:-0.01em;}.ac{letter-spacing:0em;}.ad{letter-spacing:-0.01em;}.ae{letter-spacing:-0.02em;}.af,.al{letter-spacing:0em;}.ag{letter-spacing:-0.01em;}.ah{fill:#4d4d4d;}.ai,.an{letter-spacing:-0.06em;}.ai,.aj,.ak,.al{fill:#000;}.am{letter-spacing:-0.01em;}.ao{letter-spacing:-0.01em;}.ap{letter-spacing:-0.05em;}.aq{letter-spacing:-0.08em;}.as{font-size:28px;fill:#fff;}.at{letter-spacing:-0.01em;}.au{letter-spacing:0em;}.av{letter-spacing:-0.01em;}.ax{letter-spacing:-0.01em;}.ay{letter-spacing:-0.03em;}.az{letter-spacing:0em;}.ba{letter-spacing:-0.01em;}</style></defs><text class="a" transform="translate(798.51 30.96)">User fl<tspan class="b" x="107.13" y="0">o</tspan><tspan x="127.44" y="0">w 2</tspan><tspan class="c"><tspan x="29.99" y="24">(Unparseable)</tspan></tspan></text><text class="d" transform="translate(523.51 188.07)">User<tspan class="e"><tspan x="-51.2" y="22.8">(input</tspan><tspan class="f" x="-1.16" y="22.8">E</tspan><tspan class="g" x="8.8" y="22.8">lement.input)</tspan></tspan></text><text class="d" transform="translate(516.89 382.07)"><tspan class="h">v</tspan><tspan x="16.92" y="0">alue</tspan></text><text class="a" transform="translate(461.83 569.07)">model<tspan class="i" x="103.86" y="0">V</tspan><tspan x="124.49" y="0">alue</tspan></text><text class="d" transform="translate(33.75 569.07)">seriali<tspan class="j" x="93.63" y="0">z</tspan><tspan x="109.37" y="0">ed</tspan><tspan class="k" x="149.65" y="0">V</tspan><tspan x="169.2" y="0">alue</tspan></text><line class="l" x1="560.22" y1="313.29" x2="560.22" y2="239.7"/><polygon points="571.33 304.87 560.22 309.59 549.11 304.87 560.22 331.2 571.33 304.87"/><line class="l" x1="590.22" y1="331.2" x2="590.22" y2="257.61"/><polygon points="601.33 266.04 590.22 261.32 579.11 266.04 590.22 239.7 601.33 266.04"/><line class="l" x1="560.22" y1="492.29" x2="560.22" y2="418.7"/><polygon points="571.33 483.87 560.22 488.59 549.11 483.87 560.22 510.2 571.33 483.87"/><path class="l" d="M473.72,599.2S329,748.64,175.72,611.52"/><polygon points="189.52 609.12 178.48 613.99 174.32 625.32 162.72 599.2 189.52 609.12"/><path class="l" d="M650,378.05c37.11,16.52,116.78,67.59,35.44,179.73"/><polygon points="653.67 391.67 653.34 379.6 661.79 370.99 633.22 371.7 653.67 391.67"/><g class="m"><path class="l" d="M162.72,510.42s144.71-149.44,298-12.31"/><polygon points="446.91 500.51 457.95 495.63 462.11 484.3 473.72 510.42 446.91 500.51"/></g><text class="n" transform="translate(570.49 464.1)">parser</text><text class="n" transform="translate(259.49 703.1)">seriali<tspan class="o" x="67.62" y="0">z</tspan><tspan x="78.99" y="0">er</tspan></text><g class="m"><text class="n" transform="translate(259.49 427.1)">deseriali<tspan class="o" x="96.72" y="0">z</tspan><tspan x="108.08" y="0">er</tspan></text></g><text class="p" transform="translate(607.49 277.1)">delega<tspan class="q" x="78.7" y="0">t</tspan><tspan x="88.09" y="0">e</tspan></text><text class="p" transform="translate(788.49 453.1)">sync</text><circle class="r" cx="732.72" cy="277.2" r="16.97"/><circle class="s" cx="592.22" cy="416.7" r="16.97"/><circle class="t" cx="234.22" cy="394.7" r="16.97"/><circle class="s" cx="234.22" cy="707.7" r="16.97"/><text class="u" transform="translate(445.49 151.1)">in<tspan class="q" x="21.09" y="0">t</tspan><tspan x="30.47" y="0">e</tspan><tspan class="v" x="44.62" y="0">r</tspan><tspan x="53.07" y="0">a</tspan><tspan class="w" x="67.75" y="0">c</tspan><tspan x="80.78" y="0">t</tspan></text><circle class="x" cx="420.72" cy="145.2" r="16.97"/><text class="y" transform="translate(414.79 151.45)">1</text><text class="y" transform="translate(585.79 424.45)">3</text><text class="y" transform="translate(227.79 714.45)">4</text><text class="z" transform="translate(228.79 401.45)">5</text><text class="y" transform="translate(726.79 284.45)">5</text><circle class="r" cx="771.72" cy="416.2" r="16.97"/><text class="y" transform="translate(765.79 423.45)">4</text><text class="y" transform="translate(979.75 187.95)"><tspan xml:space="preserve">1. User changes the input          </tspan><tspan x="0" y="96">2. Nati</tspan><tspan class="aa" x="60.28" y="96">v</tspan><tspan x="70.24" y="96">e input syncs with </tspan><tspan x="0" y="120" xml:space="preserve">    lion-input-da</tspan><tspan class="ab" x="140.2" y="120">t</tspan><tspan class="ac" x="148.22" y="120">e </tspan><tspan class="ad" x="164.1" y="120">v</tspan><tspan x="174.06" y="120">alue and </tspan><tspan x="0" y="144" xml:space="preserve">    gets p</tspan><tspan class="ae" x="75.64" y="144">r</tspan><tspan x="82.76" y="144">ep</tspan><tspan class="ae" x="105.32" y="144">r</tspan><tspan class="af" x="112.44" y="144">o</tspan><tspan class="ag" x="123.84" y="144">c</tspan><tspan class="ac" x="133.64" y="144">essed</tspan><tspan class="ah"><tspan x="0" y="192">3. </tspan><tspan class="ai" x="21.26" y="192">V</tspan><tspan class="aj" x="32.72" y="192">alue is parsed </tspan><tspan class="ak" x="164.5" y="192">t</tspan><tspan class="aj" x="172.52" y="192">o model</tspan><tspan class="ai" x="246.42" y="192">V</tspan><tspan class="al" x="257.88" y="192">alue</tspan></tspan><tspan x="0" y="216" xml:space="preserve">     but it is unparseable </tspan><tspan x="0" y="240" xml:space="preserve">    (parser </tspan><tspan class="ae" x="89.48" y="240">r</tspan><tspan x="96.6" y="240">e</tspan><tspan class="am" x="107.68" y="240">t</tspan><tspan x="115.7" y="240">urns undefined)</tspan><tspan x="0" y="312">4. model</tspan><tspan class="an" x="78.96" y="312">V</tspan><tspan x="90.42" y="312">alu</tspan><tspan class="ao" x="119.2" y="312">e</tspan><tspan class="ap" x="130.08" y="312">.</tspan><tspan x="133.88" y="312">vi</tspan><tspan class="ag" x="149.42" y="312">e</tspan><tspan class="ac" x="160.38" y="312">w</tspan><tspan class="an" x="176.12" y="312">V</tspan><tspan x="187.58" y="312">alu</tspan><tspan class="ao" x="216.36" y="312">e</tspan><tspan x="227.24" y="312">, </tspan><tspan x="0" y="336" xml:space="preserve">    which is the </tspan><tspan class="aa" x="133.52" y="336">v</tspan><tspan x="143.48" y="336">alue prior </tspan><tspan class="am" x="236.29" y="336">t</tspan><tspan class="af" x="244.31" y="336">o </tspan><tspan x="0" y="360" xml:space="preserve">    the parsing s</tspan><tspan class="am" x="137.66" y="360">t</tspan><tspan x="145.68" y="360">e</tspan><tspan class="ao" x="156.76" y="360">p</tspan><tspan x="168.04" y="360">, </tspan><tspan x="0" y="384" xml:space="preserve">    is syn</tspan><tspan class="ag" x="71.38" y="384">c</tspan><tspan x="81.18" y="384">ed back </tspan><tspan class="am" x="156.78" y="384">t</tspan><tspan class="af" x="164.8" y="384">o the use</tspan><tspan class="aq" x="248.87" y="384">r</tspan><tspan x="254.88" y="384">.</tspan><tspan x="0" y="408" xml:space="preserve">    It is also seriali</tspan><tspan class="ab" x="155.84" y="408">z</tspan><tspan class="ac" x="164.62" y="408">ed</tspan><tspan x="0" y="432" xml:space="preserve">    </tspan><tspan x="0" y="504">5. </tspan><tspan class="an" x="21.26" y="504">V</tspan><tspan x="32.72" y="504">alue is delega</tspan><tspan class="am" x="159.36" y="504">t</tspan><tspan x="167.38" y="504">ed back </tspan><tspan class="am" x="242.98" y="504">t</tspan><tspan class="af" x="251" y="504">o </tspan><tspan x="0" y="528" xml:space="preserve">    nati</tspan><tspan class="aa" x="55.92" y="528">v</tspan><tspan x="65.88" y="528">e input </tspan><tspan class="ad" x="134.86" y="528">v</tspan><tspan x="144.82" y="528">alue </tspan><tspan x="0" y="552" xml:space="preserve">    (what the user sees)</tspan></text><text class="ar" transform="translate(1348.75 187.95)">“10%30%2010”<tspan x="0" y="96">“10%30%2010”</tspan><tspan x="0" y="192">[Unparseable]</tspan><tspan x="0" y="312">“10%30%2010”</tspan><tspan x="0" y="336"> </tspan><tspan x="0" y="504">“10%30%2010”</tspan></text><text class="y" transform="translate(1545.75 187.95)"> <tspan class="ah" x="4.8" y="0" xml:space="preserve">@user-input-changed    </tspan><tspan x="0" y="96"> </tspan><tspan class="ah"><tspan x="0" y="192">@model-</tspan><tspan class="aa" x="81.98" y="192">v</tspan><tspan class="af" x="91.94" y="192" xml:space="preserve">alue-changed  </tspan><tspan x="0" y="384" xml:space="preserve">    </tspan><tspan x="0" y="432">@seriali</tspan><tspan class="am" x="72.3" y="432">z</tspan><tspan x="81.08" y="432">ed-</tspan><tspan class="ad" x="111.62" y="432">v</tspan><tspan x="121.58" y="432" xml:space="preserve">alue-changed  </tspan></tspan></text><text class="as" transform="translate(1255.22 665.7)">!</text><text class="z" transform="translate(0 269.8)">5. On <tspan class="ae" x="51.74" y="0">r</tspan><tspan x="58.86" y="0">equest: seriali</tspan><tspan class="am" x="187.02" y="0">z</tspan><tspan x="195.8" y="0">ed</tspan><tspan class="an" x="218.6" y="0">V</tspan><tspan x="230.06" y="0">alue</tspan><tspan x="0" y="24" xml:space="preserve">     is deseriali</tspan><tspan class="at" x="122.04" y="24">z</tspan><tspan x="130.82" y="24">ed </tspan><tspan class="at" x="158.42" y="24">t</tspan><tspan x="166.44" y="24">o model</tspan><tspan class="an" x="240.33" y="24">V</tspan><tspan class="au" x="251.79" y="24">alu</tspan><tspan class="av" x="280.57" y="24">e</tspan><tspan x="291.45" y="24">,</tspan><tspan x="0" y="48" xml:space="preserve">     which will again be Unparseable</tspan></text><text class="aw" transform="translate(95.17 343.8)">[Unparseable]</text><text class="ar" transform="translate(1264.59 597.8)">&quot;{&quot;type&quot;:&quot;unparseable&quot;,&quot;vi<tspan class="ax" x="238.75" y="0">e</tspan><tspan x="249.71" y="0">w</tspan><tspan class="an" x="265.45" y="0">V</tspan><tspan x="276.91" y="0">alue&quot;:&quot;10%30%2010&quot;}&quot;</tspan></text><text class="p" transform="translate(493.62 267.08)">sync</text><text class="p" transform="translate(414.62 324.08)">p<tspan class="ay" x="14.56" y="0">r</tspan><tspan class="az" x="23.01" y="0">ep</tspan><tspan class="v" x="51.71" y="0">r</tspan><tspan x="60.16" y="0">o</tspan><tspan class="ba" x="74.91" y="0">c</tspan><tspan x="87.25" y="0">ess</tspan></text><circle class="r" cx="467.85" cy="262.18" r="16.97"/><text class="y" transform="translate(461.92 269.44)">2</text><path class="l" d="M503.28,368.16l-.93,0a17.5,17.5,0,1,1,17.5-17.5"/><polygon points="497.64 363.56 501.4 368.29 500.61 374.27 511.81 365.4 497.64 363.56"/></svg>